<svg version="1.1" xmlns="http://www.w3.org/2000/svg" xmlns:xlink="http://www.w3.org/1999/xlink" width="862.586" height="750.938"><defs><clipPath id="QnHQfg8X30u1"><path fill="none" stroke="none" d="M 76.423 66.17 L 76.423 69.315 C 76.423 74.292 72.373 78.327 67.359 78.327 L 67.359 75.182 C 72.373 75.182 76.423 71.146 76.423 66.17 Z"></path></clipPath><clipPath id="Pnms1hnqazGm"><path fill="none" stroke="none" d="M 32.657 75.182 L 32.657 78.327 C 27.643 78.327 23.577 74.292 23.577 69.315 L 23.577 66.17 C 23.577 71.146 27.644 75.182 32.657 75.182 Z"></path></clipPath><clipPath id="tehplnypVOQK"><path fill="none" stroke="none" d="M 76.423 66.17 L 76.423 69.315 C 76.423 74.292 72.373 78.327 67.359 78.327 L 67.359 75.182 C 72.373 75.182 76.423 71.146 76.423 66.17 Z"></path></clipPath><clipPath id="hN9O49kmcrkr"><path fill="none" stroke="none" d="M 32.657 75.182 L 32.657 78.327 C 27.643 78.327 23.577 74.292 23.577 69.315 L 23.577 66.17 C 23.577 71.146 27.644 75.182 32.657 75.182 Z"></path></clipPath><clipPath id="8M1aiQMK3vFS"><path fill="none" stroke="none" d="M 71.992 27.196 L 71.992 29.512 C 71.992 32.608 62.166 35.139 50.039 35.139 C 37.924 35.139 28.088 32.608 28.088 29.512 L 28.088 27.196 C 28.088 30.298 37.924 32.827 50.039 32.827 C 62.166 32.827 71.992 30.298 71.992 27.196 Z"></path></clipPath><clipPath id="HA9xLOl6dBJX"><path fill="none" stroke="none" d="M 71.945 69.665 L 71.945 71.977 C 71.924 75.553 62.088 78.432 49.968 78.432 C 37.843 78.432 28.013 75.553 28.013 72.008 L 28.013 69.69 C 28.013 73.241 37.843 76.114 49.968 76.114 C 62.088 76.114 71.924 73.241 71.945 69.665 Z"></path></clipPath><clipPath id="WzavQkPUgA1i"><path fill="none" stroke="none" d="M 76.1 47.797 C 72.364 46.561 68.272 46.399 64.793 46.399 C 59.715 46.399 53.297 47.563 52.051 49.29 L 52.002 46.911 C 52.463 44.817 58.453 43.038 63.736 43.038 C 65.521 43.038 73.554 43.854 76.125 45.184"></path></clipPath><clipPath id="Bef44PzbhRSf"><path fill="none" stroke="none" d="M 76.236 51.252 L 76.236 54.053 C 76.236 54.633 74.49 55.571 71.189 56.104 C 69.648 56.366 67.785 56.522 65.589 56.522 C 58.693 56.522 54.939 54.893 54.939 54.053 L 54.939 51.252 C 54.939 52.09 58.693 53.723 65.589 53.723 C 67.784 53.723 69.648 53.563 71.189 53.303 C 74.49 52.77 76.236 51.83 76.236 51.252 Z"></path></clipPath><clipPath id="81mRTMcm0pNl"><path fill="none" stroke="none" d="M 76.41 73.201 L 76.41 76 C 76.41 76.867 73.443 78.469 66.287 78.469 C 62.375 78.469 59.42 78.008 57.287 77.352 L 57.287 74.551 C 59.42 75.207 62.375 75.668 66.287 75.668 C 73.443 75.668 76.41 74.066 76.41 73.201 Z"></path></clipPath><clipPath id="HtXiootGaTqi"><path fill="none" stroke="none" d="M 77.679 49.642 L 77.608 52.024 C 77.153 67.17 64.407 79.08 49.134 78.622 C 33.875 78.163 21.867 65.51 22.321 50.364 L 22.392 47.982 C 21.938 63.126 33.947 75.779 49.205 76.237 C 64.479 76.695 77.224 64.785 77.679 49.642 Z"></path></clipPath><clipPath id="r7JvM9yelFOx"><path fill="none" stroke="none" d="M 73.117 30.035 L 73.117 32.437 C 73.117 36.943 69.539 40.593 65.15 40.593 C 60.761 40.593 57.183 36.943 57.183 32.437 L 57.183 30.035 C 57.183 34.541 60.761 38.191 65.15 38.191 C 69.539 38.191 73.117 34.541 73.117 30.035 Z"></path></clipPath><clipPath id="r49etLT3huwh"><path fill="none" stroke="none" d="M 57.068 40.258 L 57.068 42.66 C 57.068 46.646 53.904 49.889 50 49.889 C 46.109 49.889 42.943 46.647 42.943 42.66 L 42.943 40.258 C 42.943 44.246 46.109 47.487 50 47.487 C 53.904 47.486 57.068 44.246 57.068 40.258 Z"></path></clipPath><clipPath id="tQc9iZSraRiE"><path fill="none" stroke="none" d="M 65.959 61.375 L 65.959 63.775 C 65.477 58.418 61.137 54.765 55.051 54.765 L 55.051 52.365 C 61.137 52.365 65.477 56.018 65.959 61.375 Z"></path></clipPath><clipPath id="R27gkhMWIcud"><path fill="none" stroke="none" d="M 44.951 52.365 L 44.951 54.765 C 38.867 54.765 34.515 58.417 34.041 63.775 L 34.041 61.375 C 34.516 56.018 38.867 52.365 44.951 52.365 Z"></path></clipPath><clipPath id="wcJAMxgJeG8m"><path fill="none" stroke="none" d="M 42.832 30.035 L 42.832 32.437 C 42.832 36.943 39.252 40.593 34.852 40.593 C 30.461 40.593 26.897 36.943 26.897 32.437 L 26.897 30.035 C 26.897 34.541 30.461 38.191 34.852 38.191 C 39.252 38.191 42.832 34.541 42.832 30.035 Z"></path></clipPath><clipPath id="npVooZmah3fi"><path fill="none" stroke="none" d="M 76.423 66.17 L 76.423 69.315 C 76.423 74.292 72.373 78.327 67.359 78.327 L 67.359 75.182 C 72.373 75.182 76.423 71.146 76.423 66.17 Z"></path></clipPath><clipPath id="RI4Fap3o1OuD"><path fill="none" stroke="none" d="M 32.657 75.182 L 32.657 78.327 C 27.643 78.327 23.577 74.292 23.577 69.315 L 23.577 66.17 C 23.577 71.146 27.644 75.182 32.657 75.182 Z"></path></clipPath><clipPath id="NR7ZQAMcVb1r"><path fill="none" stroke="none" d="M 73.117 30.035 L 73.117 32.437 C 73.117 36.943 69.539 40.593 65.15 40.593 C 60.761 40.593 57.183 36.943 57.183 32.437 L 57.183 30.035 C 57.183 34.541 60.761 38.191 65.15 38.191 C 69.539 38.191 73.117 34.541 73.117 30.035 Z"></path></clipPath><clipPath id="bSLZyuuTd0rf"><path fill="none" stroke="none" d="M 57.068 40.258 L 57.068 42.66 C 57.068 46.646 53.904 49.889 50 49.889 C 46.109 49.889 42.943 46.647 42.943 42.66 L 42.943 40.258 C 42.943 44.246 46.109 47.487 50 47.487 C 53.904 47.486 57.068 44.246 57.068 40.258 Z"></path></clipPath><clipPath id="mMZLi4yTv6TM"><path fill="none" stroke="none" d="M 65.959 61.375 L 65.959 63.775 C 65.477 58.418 61.137 54.765 55.051 54.765 L 55.051 52.365 C 61.137 52.365 65.477 56.018 65.959 61.375 Z"></path></clipPath><clipPath id="ivHG3nkkDyUM"><path fill="none" stroke="none" d="M 44.951 52.365 L 44.951 54.765 C 38.867 54.765 34.515 58.417 34.041 63.775 L 34.041 61.375 C 34.516 56.018 38.867 52.365 44.951 52.365 Z"></path></clipPath><clipPath id="DmDRrPN1xP7K"><path fill="none" stroke="none" d="M 42.832 30.035 L 42.832 32.437 C 42.832 36.943 39.252 40.593 34.852 40.593 C 30.461 40.593 26.897 36.943 26.897 32.437 L 26.897 30.035 C 26.897 34.541 30.461 38.191 34.852 38.191 C 39.252 38.191 42.832 34.541 42.832 30.035 Z"></path></clipPath><clipPath id="8kxfTi4nz99y"><path fill="none" stroke="none" d="M 77.586 28.061 L 77.586 30.833 C 77.586 34.392 65.242 37.266 50.008 37.266 C 34.758 37.266 22.414 34.392 22.414 30.833 L 22.414 28.061 C 22.414 31.62 34.758 34.493 50.008 34.493 C 65.242 34.492 77.586 31.619 77.586 28.061 Z"></path></clipPath><clipPath id="4F16wcULZugE"><path fill="none" stroke="none" d="M 68.387 71.296 L 68.387 74.069 C 68.387 76.456 60.17 78.372 50.008 78.372 C 39.846 78.372 31.613 76.456 31.613 74.069 L 31.613 71.296 C 31.613 73.685 39.845 75.599 50.008 75.599 C 60.171 75.599 68.387 73.685 68.387 71.296 Z"></path></clipPath></defs><g transform="translate(0,0)"><g><rect fill="#FFFFFF" stroke="none" x="0" y="0" width="862.586" height="750.938"></rect></g><g transform="translate(0.5,0.5) matrix(1,0,0,1,320,240)"><g><g transform="translate(0,0) scale(3.5,3.3)"><g><path fill="#ffffff" stroke="none" d="M 0 0 L 100 0 Q 100 0 100 0 L 100 100 Q 100 100 100 100 L 0 100 Q 0 100 0 100 L 0 0 Q 0 0 0 0 Z"></path><g transform="scale(0.2857142857142857,0.30303030303030304)"><path fill="none" stroke="none" d="M 0 0 L 350 0 Q 350 0 350 0 L 350 330 Q 350 330 350 330 L 0 330 Q 0 330 0 330 L 0 0 Q 0 0 0 0 Z"></path><path fill="none" stroke="#999999" d="M 0 0 M 0 0 L 350 0 Q 350 0 350 0 L 350 330 Q 350 330 350 330 L 0 330 Q 0 330 0 330 L 0 0 Q 0 0 0 0 Z" stroke-miterlimit="10"></path></g></g><g><g transform="scale(0.2857142857142857,0.30303030303030304)"><path fill="rgb(0,0,0)" stroke="none" d="M 7 6.6 L 7 320.09999999999997 L 339.5 320.09999999999997 L 339.5 9.899999999999999 L 10.5 9.899999999999999 Z" fill-opacity="0" opacity="0"></path><path fill="none" stroke="#3C7626" d="M 7 6.6 M 7 6.6 L 7 10.6 M 7 10.6 M 7 12.6 L 7 16.6 M 7 16.6 M 7 18.6 L 7 22.6 M 7 22.6 M 7 24.6 L 7 28.6 M 7 28.6 M 7 30.6 L 7 34.6 M 7 34.6 M 7 36.6 L 7 40.6 M 7 40.6 M 7 42.6 L 7 46.6 M 7 46.6 M 7 48.6 L 7 52.6 M 7 52.6 M 7 54.6 L 7 58.6 M 7 58.6 M 7 60.6 L 7 64.6 M 7 64.6 M 7 66.6 L 7 70.6 M 7 70.6 M 7 72.6 L 7 76.6 M 7 76.6 M 7 78.6 L 7 82.6 M 7 82.6 M 7 84.6 L 7 88.6 M 7 88.6 M 7 90.6 L 7 94.6 M 7 94.6 M 7 96.6 L 7 100.6 M 7 100.6 M 7 102.6 L 7 106.6 M 7 106.6 M 7 108.6 L 7 112.6 M 7 112.6 M 7 114.6 L 7 118.6 M 7 118.6 M 7 120.6 L 7 124.6 M 7 124.6 M 7 126.6 L 7 130.6 M 7 130.6 M 7 132.6 L 7 136.6 M 7 136.6 M 7 138.6 L 7 142.6 M 7 142.6 M 7 144.6 L 7 148.6 M 7 148.6 M 7 150.6 L 7 154.6 M 7 154.6 M 7 156.6 L 7 160.6 M 7 160.6 M 7 162.6 L 7 166.6 M 7 166.6 M 7 168.6 L 7 172.6 M 7 172.6 M 7 174.6 L 7 178.6 M 7 178.6 M 7 180.6 L 7 184.6 M 7 184.6 M 7 186.6 L 7 190.6 M 7 190.6 M 7 192.6 L 7 196.6 M 7 196.6 M 7 198.6 L 7 202.6 M 7 202.6 M 7 204.6 L 7 208.6 M 7 208.6 M 7 210.6 L 7 214.6 M 7 214.6 M 7 216.6 L 7 220.6 M 7 220.6 M 7 222.6 L 7 226.6 M 7 226.6 M 7 228.6 L 7 232.6 M 7 232.6 M 7 234.6 L 7 238.6 M 7 238.6 M 7 240.6 L 7 244.6 M 7 244.6 M 7 246.6 L 7 250.6 M 7 250.6 M 7 252.6 L 7 256.6 M 7 256.6 M 7 258.6 L 7 262.6 M 7 262.6 M 7 264.6 L 7 268.6 M 7 268.6 M 7 270.6 L 7 274.6 M 7 274.6 M 7 276.6 L 7 280.6 M 7 280.6 M 7 282.6 L 7 286.6 M 7 286.6 M 7 288.6 L 7 292.6 M 7 292.6 M 7 294.6 L 7 298.6 M 7 298.6 M 7 300.6 L 7 304.6 M 7 304.6 M 7 306.6 L 7 310.6 M 7 310.6 M 7 312.6 L 7 316.6 M 7 316.6 M 7 318.6 L 7 320.09999999999997 L 9.500000000000057 320.09999999999997 M 9.500000000000057 320.09999999999997 M 11.500000000000057 320.09999999999997 L 15.500000000000057 320.09999999999997 M 15.500000000000057 320.09999999999997 M 17.500000000000057 320.09999999999997 L 21.500000000000057 320.09999999999997 M 21.500000000000057 320.09999999999997 M 23.500000000000057 320.09999999999997 L 27.500000000000057 320.09999999999997 M 27.500000000000057 320.09999999999997 M 29.500000000000057 320.09999999999997 L 33.50000000000006 320.09999999999997 M 33.50000000000006 320.09999999999997 M 35.50000000000006 320.09999999999997 L 39.50000000000006 320.09999999999997 M 39.50000000000006 320.09999999999997 M 41.50000000000006 320.09999999999997 L 45.50000000000006 320.09999999999997 M 45.50000000000006 320.09999999999997 M 47.50000000000006 320.09999999999997 L 51.50000000000006 320.09999999999997 M 51.50000000000006 320.09999999999997 M 53.50000000000006 320.09999999999997 L 57.50000000000006 320.09999999999997 M 57.50000000000006 320.09999999999997 M 59.50000000000006 320.09999999999997 L 63.50000000000006 320.09999999999997 M 63.50000000000006 320.09999999999997 M 65.50000000000006 320.09999999999997 L 69.50000000000006 320.09999999999997 M 69.50000000000006 320.09999999999997 M 71.50000000000006 320.09999999999997 L 75.50000000000006 320.09999999999997 M 75.50000000000006 320.09999999999997 M 77.50000000000006 320.09999999999997 L 81.50000000000006 320.09999999999997 M 81.50000000000006 320.09999999999997 M 83.50000000000006 320.09999999999997 L 87.50000000000006 320.09999999999997 M 87.50000000000006 320.09999999999997 M 89.50000000000006 320.09999999999997 L 93.50000000000006 320.09999999999997 M 93.50000000000006 320.09999999999997 M 95.50000000000006 320.09999999999997 L 99.50000000000006 320.09999999999997 M 99.50000000000006 320.09999999999997 M 101.50000000000006 320.09999999999997 L 105.50000000000006 320.09999999999997 M 105.50000000000006 320.09999999999997 M 107.50000000000006 320.09999999999997 L 111.50000000000006 320.09999999999997 M 111.50000000000006 320.09999999999997 M 113.50000000000006 320.09999999999997 L 117.50000000000006 320.09999999999997 M 117.50000000000006 320.09999999999997 M 119.50000000000006 320.09999999999997 L 123.50000000000006 320.09999999999997 M 123.50000000000006 320.09999999999997 M 125.50000000000006 320.09999999999997 L 129.50000000000006 320.09999999999997 M 129.50000000000006 320.09999999999997 M 131.50000000000006 320.09999999999997 L 135.50000000000006 320.09999999999997 M 135.50000000000006 320.09999999999997 M 137.50000000000006 320.09999999999997 L 141.50000000000006 320.09999999999997 M 141.50000000000006 320.09999999999997 M 143.50000000000006 320.09999999999997 L 147.50000000000006 320.09999999999997 M 147.50000000000006 320.09999999999997 M 149.50000000000006 320.09999999999997 L 153.50000000000006 320.09999999999997 M 153.50000000000006 320.09999999999997 M 155.50000000000006 320.09999999999997 L 159.50000000000006 320.09999999999997 M 159.50000000000006 320.09999999999997 M 161.50000000000006 320.09999999999997 L 165.50000000000006 320.09999999999997 M 165.50000000000006 320.09999999999997 M 167.50000000000006 320.09999999999997 L 171.50000000000006 320.09999999999997 M 171.50000000000006 320.09999999999997 M 173.50000000000006 320.09999999999997 L 177.50000000000006 320.09999999999997 M 177.50000000000006 320.09999999999997 M 179.50000000000006 320.09999999999997 L 183.50000000000006 320.09999999999997 M 183.50000000000006 320.09999999999997 M 185.50000000000006 320.09999999999997 L 189.50000000000006 320.09999999999997 M 189.50000000000006 320.09999999999997 M 191.50000000000006 320.09999999999997 L 195.50000000000006 320.09999999999997 M 195.50000000000006 320.09999999999997 M 197.50000000000006 320.09999999999997 L 201.50000000000006 320.09999999999997 M 201.50000000000006 320.09999999999997 M 203.50000000000006 320.09999999999997 L 207.50000000000006 320.09999999999997 M 207.50000000000006 320.09999999999997 M 209.50000000000006 320.09999999999997 L 213.50000000000006 320.09999999999997 M 213.50000000000006 320.09999999999997 M 215.50000000000006 320.09999999999997 L 219.50000000000006 320.09999999999997 M 219.50000000000006 320.09999999999997 M 221.50000000000006 320.09999999999997 L 225.50000000000006 320.09999999999997 M 225.50000000000006 320.09999999999997 M 227.50000000000006 320.09999999999997 L 231.50000000000006 320.09999999999997 M 231.50000000000006 320.09999999999997 M 233.50000000000006 320.09999999999997 L 237.50000000000006 320.09999999999997 M 237.50000000000006 320.09999999999997 M 239.50000000000006 320.09999999999997 L 243.50000000000006 320.09999999999997 M 243.50000000000006 320.09999999999997 M 245.50000000000006 320.09999999999997 L 249.50000000000006 320.09999999999997 M 249.50000000000006 320.09999999999997 M 251.50000000000006 320.09999999999997 L 255.50000000000006 320.09999999999997 M 255.50000000000006 320.09999999999997 M 257.50000000000006 320.09999999999997 L 261.50000000000006 320.09999999999997 M 261.50000000000006 320.09999999999997 M 263.50000000000006 320.09999999999997 L 267.50000000000006 320.09999999999997 M 267.50000000000006 320.09999999999997 M 269.50000000000006 320.09999999999997 L 273.50000000000006 320.09999999999997 M 273.50000000000006 320.09999999999997 M 275.50000000000006 320.09999999999997 L 279.50000000000006 320.09999999999997 M 279.50000000000006 320.09999999999997 M 281.50000000000006 320.09999999999997 L 285.50000000000006 320.09999999999997 M 285.50000000000006 320.09999999999997 M 287.50000000000006 320.09999999999997 L 291.50000000000006 320.09999999999997 M 291.50000000000006 320.09999999999997 M 293.50000000000006 320.09999999999997 L 297.50000000000006 320.09999999999997 M 297.50000000000006 320.09999999999997 M 299.50000000000006 320.09999999999997 L 303.50000000000006 320.09999999999997 M 303.50000000000006 320.09999999999997 M 305.50000000000006 320.09999999999997 L 309.50000000000006 320.09999999999997 M 309.50000000000006 320.09999999999997 M 311.50000000000006 320.09999999999997 L 315.50000000000006 320.09999999999997 M 315.50000000000006 320.09999999999997 M 317.50000000000006 320.09999999999997 L 321.50000000000006 320.09999999999997 M 321.50000000000006 320.09999999999997 M 323.50000000000006 320.09999999999997 L 327.50000000000006 320.09999999999997 M 327.50000000000006 320.09999999999997 M 329.50000000000006 320.09999999999997 L 333.50000000000006 320.09999999999997 M 333.50000000000006 320.09999999999997 M 335.50000000000006 320.09999999999997 L 339.5 320.09999999999997 L 339.5 320.0999999999999 M 339.5 320.0999999999999 M 339.5 318.0999999999999 L 339.5 314.0999999999999 M 339.5 314.0999999999999 M 339.5 312.0999999999999 L 339.5 308.0999999999999 M 339.5 308.0999999999999 M 339.5 306.0999999999999 L 339.5 302.0999999999999 M 339.5 302.0999999999999 M 339.5 300.0999999999999 L 339.5 296.0999999999999 M 339.5 296.0999999999999 M 339.5 294.0999999999999 L 339.5 290.0999999999999 M 339.5 290.0999999999999 M 339.5 288.0999999999999 L 339.5 284.0999999999999 M 339.5 284.0999999999999 M 339.5 282.0999999999999 L 339.5 278.0999999999999 M 339.5 278.0999999999999 M 339.5 276.0999999999999 L 339.5 272.0999999999999 M 339.5 272.0999999999999 M 339.5 270.0999999999999 L 339.5 266.0999999999999 M 339.5 266.0999999999999 M 339.5 264.0999999999999 L 339.5 260.0999999999999 M 339.5 260.0999999999999 M 339.5 258.0999999999999 L 339.5 254.0999999999999 M 339.5 254.0999999999999 M 339.5 252.0999999999999 L 339.5 248.0999999999999 M 339.5 248.0999999999999 M 339.5 246.0999999999999 L 339.5 242.0999999999999 M 339.5 242.0999999999999 M 339.5 240.0999999999999 L 339.5 236.0999999999999 M 339.5 236.0999999999999 M 339.5 234.0999999999999 L 339.5 230.0999999999999 M 339.5 230.0999999999999 M 339.5 228.0999999999999 L 339.5 224.0999999999999 M 339.5 224.0999999999999 M 339.5 222.0999999999999 L 339.5 218.0999999999999 M 339.5 218.0999999999999 M 339.5 216.0999999999999 L 339.5 212.0999999999999 M 339.5 212.0999999999999 M 339.5 210.0999999999999 L 339.5 206.0999999999999 M 339.5 206.0999999999999 M 339.5 204.0999999999999 L 339.5 200.0999999999999 M 339.5 200.0999999999999 M 339.5 198.0999999999999 L 339.5 194.0999999999999 M 339.5 194.0999999999999 M 339.5 192.0999999999999 L 339.5 188.0999999999999 M 339.5 188.0999999999999 M 339.5 186.0999999999999 L 339.5 182.0999999999999 M 339.5 182.0999999999999 M 339.5 180.0999999999999 L 339.5 176.0999999999999 M 339.5 176.0999999999999 M 339.5 174.0999999999999 L 339.5 170.0999999999999 M 339.5 170.0999999999999 M 339.5 168.0999999999999 L 339.5 164.0999999999999 M 339.5 164.0999999999999 M 339.5 162.0999999999999 L 339.5 158.0999999999999 M 339.5 158.0999999999999 M 339.5 156.0999999999999 L 339.5 152.0999999999999 M 339.5 152.0999999999999 M 339.5 150.0999999999999 L 339.5 146.0999999999999 M 339.5 146.0999999999999 M 339.5 144.0999999999999 L 339.5 140.0999999999999 M 339.5 140.0999999999999 M 339.5 138.0999999999999 L 339.5 134.0999999999999 M 339.5 134.0999999999999 M 339.5 132.0999999999999 L 339.5 128.0999999999999 M 339.5 128.0999999999999 M 339.5 126.09999999999991 L 339.5 122.09999999999991 M 339.5 122.09999999999991 M 339.5 120.09999999999991 L 339.5 116.09999999999991 M 339.5 116.09999999999991 M 339.5 114.09999999999991 L 339.5 110.09999999999991 M 339.5 110.09999999999991 M 339.5 108.09999999999991 L 339.5 104.09999999999991 M 339.5 104.09999999999991 M 339.5 102.09999999999991 L 339.5 98.09999999999991 M 339.5 98.09999999999991 M 339.5 96.09999999999991 L 339.5 92.09999999999991 M 339.5 92.09999999999991 M 339.5 90.09999999999991 L 339.5 86.09999999999991 M 339.5 86.09999999999991 M 339.5 84.09999999999991 L 339.5 80.09999999999991 M 339.5 80.09999999999991 M 339.5 78.09999999999991 L 339.5 74.09999999999991 M 339.5 74.09999999999991 M 339.5 72.09999999999991 L 339.5 68.09999999999991 M 339.5 68.09999999999991 M 339.5 66.09999999999991 L 339.5 62.09999999999991 M 339.5 62.09999999999991 M 339.5 60.09999999999991 L 339.5 56.09999999999991 M 339.5 56.09999999999991 M 339.5 54.09999999999991 L 339.5 50.09999999999991 M 339.5 50.09999999999991 M 339.5 48.09999999999991 L 339.5 44.09999999999991 M 339.5 44.09999999999991 M 339.5 42.09999999999991 L 339.5 38.09999999999991 M 339.5 38.09999999999991 M 339.5 36.09999999999991 L 339.5 32.09999999999991 M 339.5 32.09999999999991 M 339.5 30.09999999999991 L 339.5 26.09999999999991 M 339.5 26.09999999999991 M 339.5 24.09999999999991 L 339.5 20.09999999999991 M 339.5 20.09999999999991 M 339.5 18.09999999999991 L 339.5 14.099999999999909 M 339.5 14.099999999999909 M 339.5 12.099999999999909 L 339.5 9.899999999999999 L 337.69999999999993 9.899999999999999 M 337.69999999999993 9.899999999999999 M 335.69999999999993 9.899999999999999 L 331.69999999999993 9.899999999999999 M 331.69999999999993 9.899999999999999 M 329.69999999999993 9.899999999999999 L 325.69999999999993 9.899999999999999 M 325.69999999999993 9.899999999999999 M 323.69999999999993 9.899999999999999 L 319.69999999999993 9.899999999999999 M 319.69999999999993 9.899999999999999 M 317.69999999999993 9.899999999999999 L 313.69999999999993 9.899999999999999 M 313.69999999999993 9.899999999999999 M 311.69999999999993 9.899999999999999 L 307.69999999999993 9.899999999999999 M 307.69999999999993 9.899999999999999 M 305.69999999999993 9.899999999999999 L 301.69999999999993 9.899999999999999 M 301.69999999999993 9.899999999999999 M 299.69999999999993 9.899999999999999 L 295.69999999999993 9.899999999999999 M 295.69999999999993 9.899999999999999 M 293.69999999999993 9.899999999999999 L 289.69999999999993 9.899999999999999 M 289.69999999999993 9.899999999999999 M 287.69999999999993 9.899999999999999 L 283.69999999999993 9.899999999999999 M 283.69999999999993 9.899999999999999 M 281.69999999999993 9.899999999999999 L 277.69999999999993 9.899999999999999 M 277.69999999999993 9.899999999999999 M 275.69999999999993 9.899999999999999 L 271.69999999999993 9.899999999999999 M 271.69999999999993 9.899999999999999 M 269.69999999999993 9.899999999999999 L 265.69999999999993 9.899999999999999 M 265.69999999999993 9.899999999999999 M 263.69999999999993 9.899999999999999 L 259.69999999999993 9.899999999999999 M 259.69999999999993 9.899999999999999 M 257.69999999999993 9.899999999999999 L 253.69999999999993 9.899999999999999 M 253.69999999999993 9.899999999999999 M 251.69999999999993 9.899999999999999 L 247.69999999999993 9.899999999999999 M 247.69999999999993 9.899999999999999 M 245.69999999999993 9.899999999999999 L 241.69999999999993 9.899999999999999 M 241.69999999999993 9.899999999999999 M 239.69999999999993 9.899999999999999 L 235.69999999999993 9.899999999999999 M 235.69999999999993 9.899999999999999 M 233.69999999999993 9.899999999999999 L 229.69999999999993 9.899999999999999 M 229.69999999999993 9.899999999999999 M 227.69999999999993 9.899999999999999 L 223.69999999999993 9.899999999999999 M 223.69999999999993 9.899999999999999 M 221.69999999999993 9.899999999999999 L 217.69999999999993 9.899999999999999 M 217.69999999999993 9.899999999999999 M 215.69999999999993 9.899999999999999 L 211.69999999999993 9.899999999999999 M 211.69999999999993 9.899999999999999 M 209.69999999999993 9.899999999999999 L 205.69999999999993 9.899999999999999 M 205.69999999999993 9.899999999999999 M 203.69999999999993 9.899999999999999 L 199.69999999999993 9.899999999999999 M 199.69999999999993 9.899999999999999 M 197.69999999999993 9.899999999999999 L 193.69999999999993 9.899999999999999 M 193.69999999999993 9.899999999999999 M 191.69999999999993 9.899999999999999 L 187.69999999999993 9.899999999999999 M 187.69999999999993 9.899999999999999 M 185.69999999999993 9.899999999999999 L 181.69999999999993 9.899999999999999 M 181.69999999999993 9.899999999999999 M 179.69999999999993 9.899999999999999 L 175.69999999999993 9.899999999999999 M 175.69999999999993 9.899999999999999 M 173.69999999999993 9.899999999999999 L 169.69999999999993 9.899999999999999 M 169.69999999999993 9.899999999999999 M 167.69999999999993 9.899999999999999 L 163.69999999999993 9.899999999999999 M 163.69999999999993 9.899999999999999 M 161.69999999999993 9.899999999999999 L 157.69999999999993 9.899999999999999 M 157.69999999999993 9.899999999999999 M 155.69999999999993 9.899999999999999 L 151.69999999999993 9.899999999999999 M 151.69999999999993 9.899999999999999 M 149.69999999999993 9.899999999999999 L 145.69999999999993 9.899999999999999 M 145.69999999999993 9.899999999999999 M 143.69999999999993 9.899999999999999 L 139.69999999999993 9.899999999999999 M 139.69999999999993 9.899999999999999 M 137.69999999999993 9.899999999999999 L 133.69999999999993 9.899999999999999 M 133.69999999999993 9.899999999999999 M 131.69999999999993 9.899999999999999 L 127.69999999999993 9.899999999999999 M 127.69999999999993 9.899999999999999 M 125.69999999999993 9.899999999999999 L 121.69999999999993 9.899999999999999 M 121.69999999999993 9.899999999999999 M 119.69999999999993 9.899999999999999 L 115.69999999999993 9.899999999999999 M 115.69999999999993 9.899999999999999 M 113.69999999999993 9.899999999999999 L 109.69999999999993 9.899999999999999 M 109.69999999999993 9.899999999999999 M 107.69999999999993 9.899999999999999 L 103.69999999999993 9.899999999999999 M 103.69999999999993 9.899999999999999 M 101.69999999999993 9.899999999999999 L 97.69999999999993 9.899999999999999 M 97.69999999999993 9.899999999999999 M 95.69999999999993 9.899999999999999 L 91.69999999999993 9.899999999999999 M 91.69999999999993 9.899999999999999 M 89.69999999999993 9.899999999999999 L 85.69999999999993 9.899999999999999 M 85.69999999999993 9.899999999999999 M 83.69999999999993 9.899999999999999 L 79.69999999999993 9.899999999999999 M 79.69999999999993 9.899999999999999 M 77.69999999999993 9.899999999999999 L 73.69999999999993 9.899999999999999 M 73.69999999999993 9.899999999999999 M 71.69999999999993 9.899999999999999 L 67.69999999999993 9.899999999999999 M 67.69999999999993 9.899999999999999 M 65.69999999999993 9.899999999999999 L 61.69999999999993 9.899999999999999 M 61.69999999999993 9.899999999999999 M 59.69999999999993 9.899999999999999 L 55.69999999999993 9.899999999999999 M 55.69999999999993 9.899999999999999 M 53.69999999999993 9.899999999999999 L 49.69999999999993 9.899999999999999 M 49.69999999999993 9.899999999999999 M 47.69999999999993 9.899999999999999 L 43.69999999999993 9.899999999999999 M 43.69999999999993 9.899999999999999 M 41.69999999999993 9.899999999999999 L 37.69999999999993 9.899999999999999 M 37.69999999999993 9.899999999999999 M 35.69999999999993 9.899999999999999 L 31.699999999999932 9.899999999999999 M 31.699999999999932 9.899999999999999 M 29.699999999999932 9.899999999999999 L 25.699999999999932 9.899999999999999 M 25.699999999999932 9.899999999999999 M 23.699999999999932 9.899999999999999 L 19.699999999999932 9.899999999999999 M 19.699999999999932 9.899999999999999 M 17.699999999999932 9.899999999999999 L 13.699999999999932 9.899999999999999 M 13.699999999999932 9.899999999999999 M 11.699999999999932 9.899999999999999 L 10.5 9.899999999999999 Z" stroke-miterlimit="10" opacity="0"></path></g></g></g></g></g><g transform="translate(0,0) matrix(1,0,0,1,390,430)"><g><g transform="translate(0,0) scale(1,1.0000176513159056) translate(-23.577,-21.674)"><g><g><g><g><path fill="#F58536" stroke="rgb(0,0,0)" d="M 67.358 21.674 C 72.373 21.674 76.422 25.711 76.422 30.686 L 76.422 66.17 C 76.422 71.147 72.372 75.182 67.358 75.182 L 32.657 75.182 C 27.643 75.182 23.577 71.147 23.577 66.17 L 23.577 30.686 C 23.577 25.711 27.643 21.674 32.657 21.674 L 67.358 21.674 Z" stroke-opacity="0" stroke-miterlimit="10"></path></g></g><g><g><g><path fill="#9D5025" stroke="rgb(0,0,0)" d="M 76.423 66.17 L 76.423 69.315 C 76.423 74.292 72.373 78.327 67.359 78.327 L 67.359 75.182 C 72.373 75.182 76.423 71.146 76.423 66.17 Z" stroke-opacity="0" stroke-miterlimit="10"></path></g></g><g clip-path="url(#QnHQfg8X30u1)"><g><g><path fill="#9D5025" stroke="rgb(0,0,0)" d="M 76.423 66.17 L 76.423 69.315 C 76.423 69.753 76.39 70.184 76.331 70.606 L 76.331 67.461 C 76.39 67.039 76.423 66.607 76.423 66.17" stroke-opacity="0" stroke-miterlimit="10"></path></g><g><path fill="#9D5025" stroke="rgb(0,0,0)" d="M 76.331 67.461 L 76.331 70.606 C 76.257 71.106 76.143 71.592 75.994 72.063 L 75.994 68.918 C 76.144 68.447 76.257 67.961 76.331 67.461" stroke-opacity="0" stroke-miterlimit="10"></path></g><g><path fill="#9D5025" stroke="rgb(0,0,0)" d="M 75.994 68.918 L 75.994 72.063 C 75.815 72.618 75.586 73.147 75.307 73.649 L 75.307 70.503 C 75.586 70.002 75.815 69.473 75.994 68.918" stroke-opacity="0" stroke-miterlimit="10"></path></g><g><path fill="#9D5025" stroke="rgb(0,0,0)" d="M 75.308 70.502 L 75.308 73.648 C 73.77 76.435 70.79 78.326 67.359 78.326 L 67.359 75.181 C 70.79 75.182 73.77 73.291 75.308 70.502" stroke-opacity="0" stroke-miterlimit="10"></path></g></g></g></g><g><g><path fill="#9D5025" stroke="rgb(0,0,0)" d="M 32.282 75.182 L 67.421 75.182 Q 67.421 75.182 67.421 75.182 L 67.421 78.327 Q 67.421 78.327 67.421 78.327 L 32.282 78.327 Q 32.282 78.327 32.282 78.327 L 32.282 75.182 Q 32.282 75.182 32.282 75.182 Z" stroke-opacity="0" stroke-miterlimit="10"></path></g></g><g><g><g><path fill="#9D5025" stroke="rgb(0,0,0)" d="M 32.657 75.182 L 32.657 78.327 C 27.643 78.327 23.577 74.292 23.577 69.315 L 23.577 66.17 C 23.577 71.146 27.644 75.182 32.657 75.182 Z" stroke-opacity="0" stroke-miterlimit="10"></path></g></g><g clip-path="url(#Pnms1hnqazGm)"><g><g><path fill="#9D5025" stroke="rgb(0,0,0)" d="M 33.032 75.182 L 33.032 78.327 C 28.018 78.327 23.577 74.292 23.577 69.315 L 23.577 66.17 C 23.577 71.147 27.643 75.182 32.657 75.182" stroke-opacity="0" stroke-miterlimit="10"></path></g></g></g></g></g></g></g></g></g><g transform="scale(1,1) matrix(1,0,0,1,392,430) translate(-30.577,58.654)"><text fill="#000000" stroke="none" font-family="Arial" font-size="12px" font-style="normal" font-weight="normal" text-decoration="none" x="0.3046875" y="11">Application Server 1</text><text fill="#000000" stroke="none" font-family="Arial" font-size="12px" font-style="normal" font-weight="normal" text-decoration="none" x="32.654296875" y="25">-Ubuntu</text><text fill="#000000" stroke="none" font-family="Arial" font-size="12px" font-style="normal" font-weight="normal" text-decoration="none" x="34.9951171875" y="39">- Nginx</text><text fill="#000000" stroke="none" font-family="Arial" font-size="12px" font-style="normal" font-weight="normal" text-decoration="none" x="36.9990234375" y="53">- Rails</text><text fill="#000000" stroke="none" font-family="Arial" font-size="12px" font-style="normal" font-weight="normal" text-decoration="none" x="29.66015625" y="67">- Unicorn</text></g><g transform="translate(0,0) matrix(1,0,0,1,550,430)"><g><g transform="translate(0,0) scale(1,1.0000176513159056) translate(-23.577,-21.674)"><g><g><g><g><path fill="#F58536" stroke="rgb(0,0,0)" d="M 67.358 21.674 C 72.373 21.674 76.422 25.711 76.422 30.686 L 76.422 66.17 C 76.422 71.147 72.372 75.182 67.358 75.182 L 32.657 75.182 C 27.643 75.182 23.577 71.147 23.577 66.17 L 23.577 30.686 C 23.577 25.711 27.643 21.674 32.657 21.674 L 67.358 21.674 Z" stroke-opacity="0" stroke-miterlimit="10"></path></g></g><g><g><g><path fill="#9D5025" stroke="rgb(0,0,0)" d="M 76.423 66.17 L 76.423 69.315 C 76.423 74.292 72.373 78.327 67.359 78.327 L 67.359 75.182 C 72.373 75.182 76.423 71.146 76.423 66.17 Z" stroke-opacity="0" stroke-miterlimit="10"></path></g></g><g clip-path="url(#tehplnypVOQK)"><g><g><path fill="#9D5025" stroke="rgb(0,0,0)" d="M 76.423 66.17 L 76.423 69.315 C 76.423 69.753 76.39 70.184 76.331 70.606 L 76.331 67.461 C 76.39 67.039 76.423 66.607 76.423 66.17" stroke-opacity="0" stroke-miterlimit="10"></path></g><g><path fill="#9D5025" stroke="rgb(0,0,0)" d="M 76.331 67.461 L 76.331 70.606 C 76.257 71.106 76.143 71.592 75.994 72.063 L 75.994 68.918 C 76.144 68.447 76.257 67.961 76.331 67.461" stroke-opacity="0" stroke-miterlimit="10"></path></g><g><path fill="#9D5025" stroke="rgb(0,0,0)" d="M 75.994 68.918 L 75.994 72.063 C 75.815 72.618 75.586 73.147 75.307 73.649 L 75.307 70.503 C 75.586 70.002 75.815 69.473 75.994 68.918" stroke-opacity="0" stroke-miterlimit="10"></path></g><g><path fill="#9D5025" stroke="rgb(0,0,0)" d="M 75.308 70.502 L 75.308 73.648 C 73.77 76.435 70.79 78.326 67.359 78.326 L 67.359 75.181 C 70.79 75.182 73.77 73.291 75.308 70.502" stroke-opacity="0" stroke-miterlimit="10"></path></g></g></g></g><g><g><path fill="#9D5025" stroke="rgb(0,0,0)" d="M 32.282 75.182 L 67.421 75.182 Q 67.421 75.182 67.421 75.182 L 67.421 78.327 Q 67.421 78.327 67.421 78.327 L 32.282 78.327 Q 32.282 78.327 32.282 78.327 L 32.282 75.182 Q 32.282 75.182 32.282 75.182 Z" stroke-opacity="0" stroke-miterlimit="10"></path></g></g><g><g><g><path fill="#9D5025" stroke="rgb(0,0,0)" d="M 32.657 75.182 L 32.657 78.327 C 27.643 78.327 23.577 74.292 23.577 69.315 L 23.577 66.17 C 23.577 71.146 27.644 75.182 32.657 75.182 Z" stroke-opacity="0" stroke-miterlimit="10"></path></g></g><g clip-path="url(#hN9O49kmcrkr)"><g><g><path fill="#9D5025" stroke="rgb(0,0,0)" d="M 33.032 75.182 L 33.032 78.327 C 28.018 78.327 23.577 74.292 23.577 69.315 L 23.577 66.17 C 23.577 71.147 27.643 75.182 32.657 75.182" stroke-opacity="0" stroke-miterlimit="10"></path></g></g></g></g></g></g></g></g></g><g transform="scale(1,1) matrix(1,0,0,1,552,430) translate(-30.577,58.654)"><text fill="#000000" stroke="none" font-family="Arial" font-size="12px" font-style="normal" font-weight="normal" text-decoration="none" x="0.3046875" y="11">Application Server 2</text><text fill="#000000" stroke="none" font-family="Arial" font-size="12px" font-style="normal" font-weight="normal" text-decoration="none" x="32.654296875" y="25">-Ubuntu</text><text fill="#000000" stroke="none" font-family="Arial" font-size="12px" font-style="normal" font-weight="normal" text-decoration="none" x="34.9951171875" y="39">- Nginx</text><text fill="#000000" stroke="none" font-family="Arial" font-size="12px" font-style="normal" font-weight="normal" text-decoration="none" x="36.9990234375" y="53">- Rails</text><text fill="#000000" stroke="none" font-family="Arial" font-size="12px" font-style="normal" font-weight="normal" text-decoration="none" x="29.66015625" y="67">- Unicorn</text></g><g transform="translate(0,0) matrix(1,0,0,1,468.8020000000001,350)"><g><g transform="translate(0,0) scale(1.0000170590242239,1.0000176884706549) translate(-20.69,-21.733)"><g><g><g><g><g><path fill="#9D5125" stroke="rgb(0,0,0)" d="M 37.845 33.88 L 42.343 33.88 Q 42.343 33.88 42.343 33.88 L 42.343 36.425 Q 42.343 36.425 42.343 36.425 L 37.845 36.425 Q 37.845 36.425 37.845 36.425 L 37.845 33.88 Q 37.845 33.88 37.845 33.88 Z" stroke-opacity="0" stroke-miterlimit="10"></path></g></g><g><g><path fill="#9D5125" stroke="rgb(0,0,0)" d="M 57.474 33.88 L 61.968 33.88 Q 61.968 33.88 61.968 33.88 L 61.968 36.425 Q 61.968 36.425 61.968 36.425 L 57.474 36.425 Q 57.474 36.425 57.474 36.425 L 57.474 33.88 Q 57.474 33.88 57.474 33.88 Z" stroke-opacity="0" stroke-miterlimit="10"></path></g></g><g><g><path fill="#9D5125" stroke="rgb(0,0,0)" d="M 57.474 42.032 L 57.474 44.577 L 51.388 50.853 L 51.388 48.306 L 57.474 42.032 Z" stroke-opacity="0" stroke-miterlimit="10"></path></g></g><g><g><path fill="#9D5125" stroke="rgb(0,0,0)" d="M 48.69 48.306 L 48.69 50.853 L 42.343 44.368 L 42.343 41.821 L 48.69 48.306 Z" stroke-opacity="0" stroke-miterlimit="10"></path></g></g><g><g><path fill="#9D5125" stroke="rgb(0,0,0)" d="M 68.888 54.202 L 79.31 54.202 Q 79.31 54.202 79.31 54.202 L 79.31 56.749 Q 79.31 56.749 79.31 56.749 L 68.888 56.749 Q 68.888 56.749 68.888 56.749 L 68.888 54.202 Q 68.888 54.202 68.888 54.202 Z" stroke-opacity="0" stroke-miterlimit="10"></path></g></g><g><g><path fill="#9D5125" stroke="rgb(0,0,0)" d="M 20.69 54.202 L 31.112 54.202 Q 31.112 54.202 31.112 54.202 L 31.112 56.749 Q 31.112 56.749 31.112 56.749 L 20.69 56.749 Q 20.69 56.749 20.69 56.749 L 20.69 54.202 Q 20.69 54.202 20.69 54.202 Z" stroke-opacity="0" stroke-miterlimit="10"></path></g></g><g><g><path fill="#9D5125" stroke="rgb(0,0,0)" d="M 68.888 60.292 L 68.888 62.841 L 56.653 50.788 L 56.653 48.241 L 68.888 60.292 Z" stroke-opacity="0" stroke-miterlimit="10"></path></g></g><g><g><path fill="#F48334" stroke="rgb(0,0,0)" d="M 31.112 36.333 L 43.347 48.374 L 31.112 60.292 L 31.112 54.202 L 20.69 54.202 L 20.69 42.411 L 31.112 42.411 L 31.112 36.333 Z" stroke-opacity="0" stroke-miterlimit="10"></path></g></g><g><g><path fill="#9D5125" stroke="rgb(0,0,0)" d="M 43.347 48.374 L 43.347 50.919 L 31.112 62.841 L 31.112 60.292 L 43.347 48.374 Z" stroke-opacity="0" stroke-miterlimit="10"></path></g></g><g><g><path fill="#F48334" stroke="rgb(0,0,0)" d="M 68.888 36.333 L 68.888 42.425 L 79.31 42.425 L 79.31 54.202 L 68.888 54.202 L 68.888 60.292 L 56.653 48.241 L 68.888 36.333 Z" stroke-opacity="0" stroke-miterlimit="10"></path></g></g><g><g><path fill="#9D5125" stroke="rgb(0,0,0)" d="M 61.968 63.575 L 61.968 66.122 L 49.841 78.267 L 49.267 75.157 L 61.968 63.575 Z" stroke-opacity="0" stroke-miterlimit="10"></path></g></g><g><g><path fill="#9D5125" stroke="rgb(0,0,0)" d="M 49.841 75.718 L 49.841 78.267 L 37.845 66.122 L 37.845 63.575 L 49.841 75.718 Z" stroke-opacity="0" stroke-miterlimit="10"></path></g></g><g><g><path fill="#F48334" stroke="rgb(0,0,0)" d="M 49.974 21.733 L 61.968 33.88 L 57.474 33.88 L 57.474 42.032 L 51.388 48.306 L 57.474 54.753 L 57.474 63.575 L 61.968 63.575 L 49.841 75.718 L 37.845 63.575 L 42.343 63.575 L 42.343 54.845 L 48.69 48.306 L 42.343 41.821 L 42.343 33.88 L 37.845 33.88 L 49.974 21.733 Z" stroke-opacity="0" stroke-miterlimit="10"></path></g></g></g></g></g></g></g></g><g transform="scale(1,1) matrix(1,0,0,1,470.8020000000001,350) translate(-5.189499999999999,58.535)"><text fill="#000000" stroke="none" font-family="Arial" font-size="12px" font-style="normal" font-weight="normal" text-decoration="none" x="0.48046875" y="11">Autoscaling</text></g><g transform="translate(0,0) matrix(1,0,0,1,629.423,631.5)"><g><g transform="translate(0,0) scale(1,1) translate(-28.008,-21.567)"><g><g><g><g><g><g><path fill="#19486F" stroke="rgb(0,0,0)" d="M 28.035 33.853 L 28.035 33.915 L 28.008 33.876 L 28.035 33.853 Z" stroke-opacity="0" stroke-miterlimit="10"></path></g></g></g><g><g><g><g><path fill="#19486F" stroke="rgb(0,0,0)" d="M 71.992 27.196 L 71.992 29.512 C 71.992 32.608 62.166 35.139 50.039 35.139 C 37.924 35.139 28.088 32.608 28.088 29.512 L 28.088 27.196 C 28.088 30.298 37.924 32.827 50.039 32.827 C 62.166 32.827 71.992 30.298 71.992 27.196 Z" stroke-opacity="0" stroke-miterlimit="10"></path></g></g><g clip-path="url(#8M1aiQMK3vFS)"><g><g><path fill="#19486F" stroke="rgb(0,0,0)" d="M 71.992 27.196 L 71.992 29.512 C 71.992 29.586 71.988 29.66 71.976 29.735 L 71.976 27.423 C 71.988 27.349 71.992 27.274 71.992 27.196" stroke-opacity="0" stroke-miterlimit="10"></path></g><g><path fill="#19486F" stroke="rgb(0,0,0)" d="M 71.977 27.423 L 71.977 29.735 C 71.963 29.821 71.942 29.911 71.911 30.005 L 71.911 27.689 C 71.941 27.603 71.963 27.511 71.977 27.423" stroke-opacity="0" stroke-miterlimit="10"></path></g><g><path fill="#19486F" stroke="rgb(0,0,0)" d="M 71.91 27.688 L 71.91 30.004 C 71.869 30.119 71.818 30.238 71.75 30.352 L 71.75 28.04 C 71.818 27.921 71.869 27.808 71.91 27.688" stroke-opacity="0" stroke-miterlimit="10"></path></g><g><path fill="#19486F" stroke="rgb(0,0,0)" d="M 71.75 28.04 L 71.75 30.352 C 70.16 33.053 61.047 35.139 50.039 35.139 C 37.924 35.139 28.088 32.608 28.088 29.512 L 28.088 27.196 C 28.088 30.298 37.924 32.827 50.039 32.827 C 61.047 32.827 70.16 30.741 71.75 28.04" stroke-opacity="0" stroke-miterlimit="10"></path></g></g></g></g><g><g><path fill="#2E73B7" stroke="rgb(0,0,0)" d="M 50.039 21.567 C 62.166 21.567 71.992 24.081 71.992 27.196 C 71.992 30.298 62.166 32.827 50.039 32.827 C 37.924 32.827 28.088 30.298 28.088 27.196 C 28.088 24.081 37.924 21.567 50.039 21.567 Z" stroke-opacity="0" stroke-miterlimit="10"></path></g></g><g><g><g><path fill="#19486F" stroke="rgb(0,0,0)" d="M 71.945 69.665 L 71.945 71.977 C 71.924 75.553 62.088 78.432 49.968 78.432 C 37.843 78.432 28.013 75.553 28.013 72.008 L 28.013 69.69 C 28.013 73.241 37.843 76.114 49.968 76.114 C 62.088 76.114 71.924 73.241 71.945 69.665 Z" stroke-opacity="0" stroke-miterlimit="10"></path></g></g><g clip-path="url(#HA9xLOl6dBJX)"><g><g><path fill="#19486F" stroke="rgb(0,0,0)" d="M 71.945 69.665 L 71.945 71.977 C 71.945 72.071 71.937 72.165 71.924 72.26 L 71.924 69.942 C 71.938 69.853 71.945 69.755 71.945 69.665" stroke-opacity="0" stroke-miterlimit="10"></path></g><g><path fill="#19486F" stroke="rgb(0,0,0)" d="M 71.924 69.942 L 71.924 72.26 C 71.903 72.381 71.873 72.504 71.832 72.623 L 71.832 70.305 C 71.873 70.19 71.902 70.065 71.924 69.942" stroke-opacity="0" stroke-miterlimit="10"></path></g><g><path fill="#19486F" stroke="rgb(0,0,0)" d="M 71.832 70.306 L 71.832 72.624 C 71.781 72.767 71.717 72.913 71.633 73.056 L 71.633 70.744 C 71.717 70.599 71.781 70.458 71.832 70.306" stroke-opacity="0" stroke-miterlimit="10"></path></g><g><path fill="#19486F" stroke="rgb(0,0,0)" d="M 71.633 70.743 L 71.633 73.055 C 69.869 76.114 60.836 78.432 49.969 78.432 C 37.844 78.432 28.014 75.553 28.014 72.008 L 28.014 69.69 C 28.014 73.241 37.844 76.114 49.969 76.114 C 60.836 76.114 69.869 73.802 71.633 70.743" stroke-opacity="0" stroke-miterlimit="10"></path></g></g></g></g></g></g><g><path fill="#2E73B7" stroke="rgb(0,0,0)" d="M 71.928 31.763 C 70.696 35.146 62.094 37.167 49.969 37.167 C 37.891 37.167 29.631 34.868 28.035 31.599 L 28.014 69.69 C 28.014 73.241 37.844 76.114 49.969 76.114 C 62.088 76.114 71.924 73.241 71.946 69.665 L 71.928 31.763 Z" stroke-opacity="0" stroke-miterlimit="10"></path></g><g><g><path fill="#FFFFFF" stroke="rgb(0,0,0)" d="M 35.654 43.483 L 43.9 43.483 L 50.129 61.676 L 50.205 61.676 L 56.101 43.483 L 64.347 43.483 L 64.347 69.942 L 58.863 69.942 L 58.863 51.192 L 58.787 51.192 L 52.258 69.942 L 47.742 69.942 L 41.215 51.378 L 41.137 51.378 L 41.137 69.942 L 35.655 69.942 L 35.655 43.483 Z" stroke-opacity="0" stroke-miterlimit="10"></path></g></g></g></g></g></g></g><g transform="scale(1,1) matrix(1,0,0,1,631.423,631.5) translate(-26.508,58.865)"><text fill="#000000" stroke="none" font-family="Arial" font-size="12px" font-style="normal" font-weight="normal" text-decoration="none" x="0.4765625" y="11">Database Server</text><text fill="#000000" stroke="none" font-family="Arial" font-size="12px" font-style="normal" font-weight="normal" text-decoration="none" x="9.1513671875" y="25">- PostgreSQL</text></g><g transform="translate(0,0) matrix(1,0,0,1,299.6125000000001,630)"><g><g transform="translate(0,0) scale(1,1.0004041113941844) translate(-23.574,-21.531)"><g><g><g><g><path fill="#9D5125" stroke="rgb(0,0,0)" d="M 76.424 25.533 L 76.424 28.139" stroke-opacity="0" stroke-miterlimit="10"></path></g></g><g><g><g><path fill="#9D5025" stroke="rgb(0,0,0)" d="M 76.1 47.797 C 72.364 46.561 68.272 46.399 64.793 46.399 C 59.715 46.399 53.297 47.563 52.051 49.29 L 52.002 46.911 C 52.463 44.817 58.453 43.038 63.736 43.038 C 65.521 43.038 73.554 43.854 76.125 45.184" stroke-opacity="0" stroke-miterlimit="10"></path></g></g><g clip-path="url(#WzavQkPUgA1i)"><g><g><path fill="#9D5025" stroke="rgb(0,0,0)" d="M 52.252 46.496 L 52.252 49.101 C 52.201 49.191 52.158 49.287 52.127 49.38 L 52.127 46.775 C 52.158 46.682 52.201 46.588 52.252 46.496" stroke-opacity="0" stroke-miterlimit="10"></path></g><g><path fill="#9D5025" stroke="rgb(0,0,0)" d="M 52.127 46.775 L 52.127 49.38 C 52.113 49.427 52.099 49.474 52.087 49.521 L 52.087 46.916 C 52.099 46.867 52.113 46.822 52.127 46.775" stroke-opacity="0" stroke-miterlimit="10"></path></g></g></g></g><g><g><path fill="#F58536" stroke="rgb(0,0,0)" d="M 65.59 48.77 C 67.785 48.77 69.649 48.942 71.19 49.188 C 74.491 49.737 76.237 50.674 76.237 51.252 C 76.237 51.83 74.491 52.77 71.19 53.303 C 69.649 53.563 67.786 53.723 65.59 53.723 C 58.694 53.723 54.94 52.09 54.94 51.252 C 54.94 50.414 58.693 48.77 65.59 48.77 Z" stroke-opacity="0" stroke-miterlimit="10"></path></g></g><g><g><g><path fill="#9D5025" stroke="rgb(0,0,0)" d="M 76.236 51.252 L 76.236 54.053 C 76.236 54.633 74.49 55.571 71.189 56.104 C 69.648 56.366 67.785 56.522 65.589 56.522 C 58.693 56.522 54.939 54.893 54.939 54.053 L 54.939 51.252 C 54.939 52.09 58.693 53.723 65.589 53.723 C 67.784 53.723 69.648 53.563 71.189 53.303 C 74.49 52.77 76.236 51.83 76.236 51.252 Z" stroke-opacity="0" stroke-miterlimit="10"></path></g></g><g clip-path="url(#Bef44PzbhRSf)"><g><g><path fill="#9D5025" stroke="rgb(0,0,0)" d="M 76.236 51.252 L 76.236 54.053 C 76.236 54.069 76.234 54.084 76.234 54.1 L 76.234 51.297 C 76.234 51.281 76.236 51.268 76.236 51.252" stroke-opacity="0" stroke-miterlimit="10"></path></g><g><path fill="#9D5025" stroke="rgb(0,0,0)" d="M 76.234 51.297 L 76.234 54.1 C 76.232 54.12 76.226 54.139 76.218 54.159 L 76.218 51.356 C 76.227 51.336 76.232 51.316 76.234 51.297" stroke-opacity="0" stroke-miterlimit="10"></path></g><g><path fill="#9D5025" stroke="rgb(0,0,0)" d="M 76.219 51.355 L 76.219 54.158 C 76.209 54.185 76.198 54.215 76.182 54.242 L 76.182 51.439 C 76.197 51.412 76.209 51.383 76.219 51.355" stroke-opacity="0" stroke-miterlimit="10"></path></g><g><path fill="#9D5025" stroke="rgb(0,0,0)" d="M 76.182 51.439 L 76.182 54.242 C 75.864 54.82 74.153 55.625 71.19 56.103 C 69.649 56.365 67.786 56.521 65.59 56.521 C 58.694 56.521 54.94 54.892 54.94 54.052 L 54.94 51.251 C 54.94 52.089 58.694 53.722 65.59 53.722 C 67.785 53.722 69.649 53.562 71.19 53.302 C 74.152 52.822 75.863 52.02 76.182 51.439" stroke-opacity="0" stroke-miterlimit="10"></path></g></g></g></g><g><g><g><path fill="#9D5025" stroke="rgb(0,0,0)" d="M 54.961 71.617 C 55.068 72.162 57.779 72.601 59.107 73.248 L 57.31 77.363 C 55.642 76.802 55.156 76.445 54.945 76.117" stroke-opacity="0" stroke-miterlimit="10"></path></g></g></g><g><g><g><path fill="#9D5025" stroke="rgb(0,0,0)" d="M 76.41 73.201 L 76.41 76 C 76.41 76.867 73.443 78.469 66.287 78.469 C 62.375 78.469 59.42 78.008 57.287 77.352 L 57.287 74.551 C 59.42 75.207 62.375 75.668 66.287 75.668 C 73.443 75.668 76.41 74.066 76.41 73.201 Z" stroke-opacity="0" stroke-miterlimit="10"></path></g></g><g clip-path="url(#81mRTMcm0pNl)"><g><g><path fill="#9D5025" stroke="rgb(0,0,0)" d="M 76.41 73.201 L 76.41 76 C 76.41 76.02 76.41 76.041 76.406 76.062 L 76.406 73.261 C 76.41 73.24 76.41 73.219 76.41 73.201" stroke-opacity="0" stroke-miterlimit="10"></path></g><g><path fill="#9D5025" stroke="rgb(0,0,0)" d="M 76.406 73.262 L 76.406 76.063 C 76.404 76.086 76.396 76.112 76.388 76.137 L 76.388 73.334 C 76.396 73.309 76.404 73.285 76.406 73.262" stroke-opacity="0" stroke-miterlimit="10"></path></g><g><path fill="#9D5025" stroke="rgb(0,0,0)" d="M 76.389 73.334 L 76.389 76.137 C 76.375 76.176 76.36 76.215 76.334 76.256 L 76.334 73.455 C 76.359 73.414 76.375 73.373 76.389 73.334" stroke-opacity="0" stroke-miterlimit="10"></path></g><g><path fill="#9D5025" stroke="rgb(0,0,0)" d="M 76.334 73.432 L 76.334 76.233 C 75.832 77.124 72.787 78.446 66.287 78.446 C 62.375 78.446 59.209 77.938 57.287 77.376 L 56.596 73.642 C 58.518 74.206 62.375 75.648 66.287 75.648 C 72.787 75.646 75.832 74.324 76.334 73.432" stroke-opacity="0" stroke-miterlimit="10"></path></g></g></g></g><g><g><g><path fill="#9D5025" stroke="rgb(0,0,0)" d="M 27.748 74.484 L 27.748 77.089 C 25.529 77.089 23.728 75.304 23.603 73.087 L 23.603 70.482 C 23.729 72.697 25.529 74.484 27.748 74.484 Z" stroke-opacity="0" stroke-miterlimit="10"></path></g></g></g><g><g><path fill="#9D5025" stroke="rgb(0,0,0)" d="M 53.602 74.459 L 53.602 77.062 L 27.561 77.09 L 27.561 74.484 L 53.602 74.459 Z" stroke-opacity="0" stroke-miterlimit="10"></path></g></g><g><path fill="#F58536" stroke="rgb(0,0,0)" d="M 76.139 45.514 C 72.332 44.186 66.08 44.137 64.295 44.16 C 59.076 44.23 53.131 45.467 52.135 47.014 L 52.094 47.321 L 52.11 48.272 L 52.094 73.102 C 52.094 73.559 53.057 74.055 53.461 74.459 L 27.594 74.484 C 25.374 74.484 23.574 72.697 23.574 70.482 L 23.574 25.523 C 23.574 23.32 25.374 21.535 27.594 21.535 L 72.276 21.531 C 74.497 21.531 76.297 23.318 76.297 25.533" stroke-opacity="0" stroke-miterlimit="10"></path></g><g><g><path fill="#F58536" stroke="rgb(0,0,0)" d="M 76.426 56.104 L 76.41 73.201 C 76.41 74.066 73.443 75.668 66.287 75.668 C 62.375 75.668 59.42 75.207 57.5 74.643 C 56.076 74.182 55.07 73.663 54.957 73.274 L 54.957 56.264 C 57.037 57.549 61.326 58.227 65.59 58.227 L 65.865 58.227 C 66.314 58.213 66.738 58.213 67.174 58.198 L 67.35 58.184 C 67.727 58.168 68.077 58.155 68.44 58.125 C 68.629 58.111 68.803 58.098 68.979 58.082 C 69.268 58.053 69.543 58.039 69.821 58.01 C 69.983 57.981 70.128 57.967 70.274 57.938 C 70.579 57.909 70.87 57.868 71.174 57.823 C 73.502 57.447 75.307 56.826 76.426 56.104 Z" stroke-opacity="0" stroke-miterlimit="10"></path></g></g></g></g></g></g></g><g transform="scale(1,1) matrix(1,0,0,1,301.6125000000001,630) translate(-59.574,58.938)"><text fill="#000000" stroke="none" font-family="Arial" font-size="12px" font-style="normal" font-weight="normal" text-decoration="none" x="0.2919921875" y="11">Background Processing Server</text><text fill="#000000" stroke="none" font-family="Arial" font-size="12px" font-style="normal" font-weight="normal" text-decoration="none" x="59.65625" y="25">- Sidekiq</text><text fill="#000000" stroke="none" font-family="Arial" font-size="12px" font-style="normal" font-weight="normal" text-decoration="none" x="42.65234375" y="39">- ElasticSearch</text></g><g transform="translate(0,0) matrix(1,0,0,1,469,261)"><g><g transform="translate(0,0) scale(1.000017166818521,1.0000186255728298) translate(-22.30854,-21.36621)"><g><g><g><path fill="#F58536" stroke="rgb(0,0,0)" d="M 50.853 21.379 C 66.125 21.837 78.134 34.481 77.679 49.642 C 77.224 64.786 64.479 76.696 49.206 76.238 C 33.947 75.78 21.938 63.127 22.393 47.983 C 22.848 32.821 35.594 20.921 50.853 21.379 Z" stroke-opacity="0" stroke-miterlimit="10"></path></g></g><g><g><g><path fill="#9D5025" stroke="rgb(0,0,0)" d="M 77.679 49.642 L 77.608 52.024 C 77.153 67.17 64.407 79.08 49.134 78.622 C 33.875 78.163 21.867 65.51 22.321 50.364 L 22.392 47.982 C 21.938 63.126 33.947 75.779 49.205 76.237 C 64.479 76.695 77.224 64.785 77.679 49.642 Z" stroke-opacity="0" stroke-miterlimit="10"></path></g></g><g clip-path="url(#HtXiootGaTqi)"><g><g><path fill="#9D5025" stroke="rgb(0,0,0)" d="M 76.124 57.937 L 76.053 60.321 C 75.465 61.99 74.716 63.58 73.827 65.079 L 73.898 62.695 C 74.787 61.195 75.537 59.605 76.124 57.937" stroke-opacity="0" stroke-miterlimit="10"></path></g><g><path fill="#9D5025" stroke="rgb(0,0,0)" d="M 73.898 62.694 L 73.827 65.078 C 68.877 73.441 59.598 78.934 49.134 78.621 C 33.875 78.163 21.867 65.51 22.321 50.364 L 22.392 47.982 C 21.938 63.126 33.947 75.779 49.205 76.237 C 59.67 76.551 68.948 71.06 73.898 62.694" stroke-opacity="0" stroke-miterlimit="10"></path></g><g><path fill="#9D5025" stroke="rgb(0,0,0)" d="M 77.679 49.642 L 77.608 52.024 C 77.568 53.356 77.433 54.659 77.209 55.934 L 77.281 53.55 C 77.504 52.274 77.639 50.972 77.679 49.642" stroke-opacity="0" stroke-miterlimit="10"></path></g><g><path fill="#9D5025" stroke="rgb(0,0,0)" d="M 77.28 53.55 L 77.208 55.934 C 76.94 57.442 76.555 58.912 76.053 60.321 L 76.124 57.937 C 76.626 56.527 77.012 55.06 77.28 53.55" stroke-opacity="0" stroke-miterlimit="10"></path></g></g></g></g><g><path fill="#FFFFFF" stroke="rgb(0,0,0)" d="M 67.993 39.5 L 58.993 39.5 L 58.993 37.709 L 56.198 41.234 L 54.913 39.418 L 42.229 47.5 L 52.993 47.5 L 52.993 45.578 L 58.993 47.822 L 58.993 44.5 L 67.993 44.5 L 67.993 53.5 L 58.993 53.5 L 58.993 50.178 L 52.993 52.422 L 52.993 50.5 L 42.231 50.5 L 55.03 58.581 L 56.198 56.703 L 58.993 60.291 L 58.993 58.5 L 67.993 58.5 L 67.993 67.5 L 58.993 67.5 L 58.993 63.902 L 52.775 62.406 L 53.625 60.601 L 37.993 50.488 L 37.993 56.5 L 27.993 56.5 L 27.993 41.5 L 37.993 41.5 L 37.993 47.51 L 53.741 37.398 L 52.776 35.594 L 58.993 34.098 L 58.993 30.5 L 67.993 30.5 L 67.993 39.5 Z" stroke-opacity="0" stroke-miterlimit="10"></path></g></g></g></g></g><g transform="scale(1,1) matrix(1,0,0,1,471,261) translate(-14.308039625302431,59.26856663999203)"><text fill="#000000" stroke="none" font-family="Arial" font-size="12px" font-style="normal" font-weight="normal" text-decoration="none" x="0.3046875" y="11">Load Balancer</text></g><g transform="matrix(1,0,0,1,411.923,285.13428331999603)"><g transform="translate(0,0)"><g transform="translate(-467,-376) translate(55.077,90.86571668000397) matrix(1,0,0,1,0,0)"><g><path fill="none" stroke="#000000" d="M 469 289.63428331999603 L 416.423 289.63428331999603 L 416.423 430" stroke-miterlimit="10" stroke-width="2"></path></g></g></g></g><g transform="matrix(1,0,0,1,519.8839207493951,285.13428331999603)"><g transform="translate(0,0)"><g transform="translate(-527,-378) translate(7.116079250604912,92.86571668000397) matrix(1,0,0,1,0,0)"><g><path fill="none" stroke="#000000" d="M 524.3839207493951 289.63428331999603 L 576.423 289.63428331999603 L 576.423 430" stroke-miterlimit="10" stroke-width="2"></path></g></g></g></g><g transform="matrix(1,0,0,1,321.5385000000001,453.827)"><g transform="translate(0,0)"><g transform="translate(-411,-602) translate(89.46149999999989,148.173) matrix(1,0,0,1,0,0)"><g><path fill="none" stroke="#000000" d="M 326.0385000000001 630 L 326.0385000000001 458.327 L 390 458.327" stroke-miterlimit="10" stroke-width="2"></path></g></g></g></g><g transform="matrix(1,0,0,1,598.346,453.827)"><g transform="translate(0,0)"><g transform="translate(-604,-458) translate(5.653999999999996,4.173000000000002) matrix(1,0,0,1,0,0)"><g><path fill="none" stroke="#000000" d="M 602.846 458.327 L 651.415 458.327 L 651.415 631.5" stroke-miterlimit="10" stroke-width="2"></path></g></g></g></g><g transform="translate(0,0) matrix(1,0,0,1,465.77750000000003,120)"><g><g transform="translate(0,0) scale(1,1) translate(-20.582,-21.893)"><g><g><g><path fill="#ACACAC" stroke="rgb(0,0,0)" d="M 65.15 21.893 C 69.539 21.893 73.117 25.543 73.117 30.036 C 73.117 34.542 69.539 38.192 65.15 38.192 C 60.761 38.192 57.183 34.542 57.183 30.036 C 57.184 25.543 60.762 21.893 65.15 21.893 Z" stroke-opacity="0" stroke-miterlimit="10"></path></g></g><g><g><g><path fill="#4F4F4F" stroke="rgb(0,0,0)" d="M 73.117 30.035 L 73.117 32.437 C 73.117 36.943 69.539 40.593 65.15 40.593 C 60.761 40.593 57.183 36.943 57.183 32.437 L 57.183 30.035 C 57.183 34.541 60.761 38.191 65.15 38.191 C 69.539 38.191 73.117 34.541 73.117 30.035 Z" stroke-opacity="0" stroke-miterlimit="10"></path></g></g><g clip-path="url(#r7JvM9yelFOx)"><g><g><path fill="#4F4F4F" stroke="rgb(0,0,0)" d="M 73.117 30.035 L 73.117 32.437 C 73.117 32.845 73.09 33.248 73.031 33.636 L 73.031 31.236 C 73.09 30.844 73.117 30.443 73.117 30.035" stroke-opacity="0" stroke-miterlimit="10"></path></g><g><path fill="#4F4F4F" stroke="rgb(0,0,0)" d="M 73.031 31.236 L 73.031 33.636 C 72.965 34.097 72.861 34.546 72.72 34.978 L 72.72 32.578 C 72.861 32.146 72.965 31.695 73.031 31.236" stroke-opacity="0" stroke-miterlimit="10"></path></g><g><path fill="#4F4F4F" stroke="rgb(0,0,0)" d="M 72.721 32.578 L 72.721 34.978 C 72.559 35.49 72.346 35.978 72.094 36.441 L 72.094 34.039 C 72.346 33.576 72.559 33.09 72.721 32.578" stroke-opacity="0" stroke-miterlimit="10"></path></g><g><path fill="#4F4F4F" stroke="rgb(0,0,0)" d="M 72.094 34.039 L 72.094 36.441 C 70.723 38.918 68.123 40.593 65.151 40.593 C 60.762 40.593 57.184 36.943 57.184 32.437 L 57.184 30.035 C 57.184 34.541 60.762 38.191 65.151 38.191 C 68.123 38.191 70.723 36.518 72.094 34.039" stroke-opacity="0" stroke-miterlimit="10"></path></g></g></g></g><g><g><path fill="#ACACAC" stroke="rgb(0,0,0)" d="M 50 33.031 C 53.904 33.031 57.068 36.275 57.068 40.258 C 57.068 44.246 53.904 47.487 50 47.487 C 46.109 47.487 42.943 44.247 42.943 40.258 C 42.943 36.275 46.109 33.031 50 33.031 Z" stroke-opacity="0" stroke-miterlimit="10"></path></g></g><g><g><g><path fill="#4F4F4F" stroke="rgb(0,0,0)" d="M 57.068 40.258 L 57.068 42.66 C 57.068 46.646 53.904 49.889 50 49.889 C 46.109 49.889 42.943 46.647 42.943 42.66 L 42.943 40.258 C 42.943 44.246 46.109 47.487 50 47.487 C 53.904 47.486 57.068 44.246 57.068 40.258 Z" stroke-opacity="0" stroke-miterlimit="10"></path></g></g><g clip-path="url(#r49etLT3huwh)"><g><g><path fill="#4F4F4F" stroke="rgb(0,0,0)" d="M 57.068 40.258 L 57.068 42.66 C 57.068 43.021 57.043 43.375 56.994 43.721 L 56.994 41.319 C 57.043 40.973 57.068 40.619 57.068 40.258" stroke-opacity="0" stroke-miterlimit="10"></path></g><g><path fill="#4F4F4F" stroke="rgb(0,0,0)" d="M 56.994 41.318 L 56.994 43.72 C 56.933 44.128 56.844 44.527 56.719 44.913 L 56.719 42.511 C 56.844 42.127 56.934 41.729 56.994 41.318" stroke-opacity="0" stroke-miterlimit="10"></path></g><g><path fill="#4F4F4F" stroke="rgb(0,0,0)" d="M 56.719 42.512 L 56.719 44.914 C 56.574 45.363 56.387 45.797 56.162 46.207 L 56.162 43.807 C 56.387 43.398 56.574 42.963 56.719 42.512" stroke-opacity="0" stroke-miterlimit="10"></path></g><g><path fill="#4F4F4F" stroke="rgb(0,0,0)" d="M 56.162 43.807 L 56.162 46.207 C 54.947 48.402 52.642 49.889 50 49.889 C 46.109 49.889 42.943 46.647 42.943 42.66 L 42.943 40.258 C 42.943 44.246 46.109 47.487 50 47.487 C 52.643 47.486 54.947 46 56.162 43.807" stroke-opacity="0" stroke-miterlimit="10"></path></g></g></g></g><g><g><path fill="#4F4F4F" stroke="rgb(0,0,0)" d="M 55.664 52.139 L 55.051 54.766 L 50.875 54.766 L 50.875 52.365 L 55.664 52.139 Z" stroke-opacity="0" stroke-miterlimit="10"></path></g></g><g><g><path fill="#4F4F4F" stroke="rgb(0,0,0)" d="M 49.129 52.365 L 49.129 54.766 L 44.951 54.766 L 44.164 52.139 L 49.129 52.365 Z" stroke-opacity="0" stroke-miterlimit="10"></path></g></g><g><g><path fill="#4F4F4F" stroke="rgb(0,0,0)" d="M 73.332 54.195 L 74.641 54.195 Q 74.641 54.195 74.641 54.195 L 74.641 56.597 Q 74.641 56.597 74.641 56.597 L 73.332 56.597 Q 73.332 56.597 73.332 56.597 L 73.332 54.195 Q 73.332 54.195 73.332 54.195 Z" stroke-opacity="0" stroke-miterlimit="10"></path></g></g><g><g><path fill="#4F4F4F" stroke="rgb(0,0,0)" d="M 25.598 54.209 L 26.897 54.209 Q 26.897 54.209 26.897 54.209 L 26.897 56.611 Q 26.897 56.611 26.897 56.611 L 25.598 56.611 Q 25.598 56.611 25.598 56.611 L 25.598 54.209 Q 25.598 54.209 25.598 54.209 Z" stroke-opacity="0" stroke-miterlimit="10"></path></g></g><g><g><path fill="#4F4F4F" stroke="rgb(0,0,0)" d="M 26.896 61.375 L 34.041 61.375 Q 34.041 61.375 34.041 61.375 L 34.041 63.775 Q 34.041 63.775 34.041 63.775 L 26.896 63.775 Q 26.896 63.775 26.896 63.775 L 26.896 61.375 Q 26.896 61.375 26.896 61.375 Z" stroke-opacity="0" stroke-miterlimit="10"></path></g></g><g><g><path fill="#4F4F4F" stroke="rgb(0,0,0)" d="M 20.584 61.375 L 25.598 61.375 Q 25.598 61.375 25.598 61.375 L 25.598 63.775 Q 25.598 63.775 25.598 63.775 L 20.584 63.775 Q 20.584 63.775 20.584 63.775 L 20.584 61.375 Q 20.584 61.375 20.584 61.375 Z" stroke-opacity="0" stroke-miterlimit="10"></path></g></g><g><g><path fill="#ACACAC" stroke="rgb(0,0,0)" d="M 70.188 42.486 C 75.626 42.486 79.417 45.904 79.417 50.781 L 79.417 61.375 L 74.642 61.375 L 74.642 54.195 L 73.333 54.195 L 73.333 61.375 L 65.96 61.375 C 65.478 56.018 61.138 52.365 55.052 52.365 L 50.876 52.365 L 50.876 51.459 C 55.538 51.039 59.253 47.252 59.665 42.51 C 59.815 42.5 59.952 42.487 60.103 42.487 L 70.188 42.487 Z" stroke-opacity="0" stroke-miterlimit="10"></path></g></g><g><g><path fill="#4F4F4F" stroke="rgb(0,0,0)" d="M 74.641 61.375 L 79.416 61.375 Q 79.416 61.375 79.416 61.375 L 79.416 63.775 Q 79.416 63.775 79.416 63.775 L 74.641 63.775 Q 74.641 63.775 74.641 63.775 L 74.641 61.375 Q 74.641 61.375 74.641 61.375 Z" stroke-opacity="0" stroke-miterlimit="10"></path></g></g><g><g><path fill="#4F4F4F" stroke="rgb(0,0,0)" d="M 65.959 61.375 L 73.332 61.375 Q 73.332 61.375 73.332 61.375 L 73.332 63.775 Q 73.332 63.775 73.332 63.775 L 65.959 63.775 Q 65.959 63.775 65.959 63.775 L 65.959 61.375 Q 65.959 61.375 65.959 61.375 Z" stroke-opacity="0" stroke-miterlimit="10"></path></g></g><g><g><g><path fill="#4F4F4F" stroke="rgb(0,0,0)" d="M 65.959 61.375 L 65.959 63.775 C 65.477 58.418 61.137 54.765 55.051 54.765 L 55.051 52.365 C 61.137 52.365 65.477 56.018 65.959 61.375 Z" stroke-opacity="0" stroke-miterlimit="10"></path></g></g><g clip-path="url(#tQc9iZSraRiE)"><g><g><path fill="#4F4F4F" stroke="rgb(0,0,0)" d="M 65.959 61.375 L 65.959 63.775 C 65.477 58.418 61.137 54.765 55.051 54.765 L 55.051 52.365 C 61.137 52.365 65.477 56.018 65.959 61.375" stroke-opacity="0" stroke-miterlimit="10"></path></g></g></g></g><g><g><path fill="#ACACAC" stroke="rgb(0,0,0)" d="M 39.898 42.5 C 40.05 42.5 40.199 42.51 40.347 42.51 C 40.761 47.252 44.474 51.039 49.128 51.459 L 49.128 52.365 L 44.95 52.365 C 38.866 52.365 34.514 56.017 34.04 61.375 L 26.895 61.375 L 26.895 54.209 L 25.596 54.209 L 25.596 61.375 L 20.582 61.375 L 20.582 50.793 C 20.582 45.904 24.375 42.5 29.812 42.5 L 39.898 42.5 Z" stroke-opacity="0" stroke-miterlimit="10"></path></g></g><g><g><g><path fill="#4F4F4F" stroke="rgb(0,0,0)" d="M 44.951 52.365 L 44.951 54.765 C 38.867 54.765 34.515 58.417 34.041 63.775 L 34.041 61.375 C 34.516 56.018 38.867 52.365 44.951 52.365 Z" stroke-opacity="0" stroke-miterlimit="10"></path></g></g><g clip-path="url(#R27gkhMWIcud)"><g><g><path fill="#4F4F4F" stroke="rgb(0,0,0)" d="M 44.951 52.365 L 44.951 54.765 C 40.48 54.765 36.947 56.734 35.199 59.904 L 35.199 57.5 C 36.947 54.332 40.48 52.365 44.951 52.365" stroke-opacity="0" stroke-miterlimit="10"></path></g><g><path fill="#4F4F4F" stroke="rgb(0,0,0)" d="M 35.199 57.5 L 35.199 59.904 C 34.91 60.424 34.67 60.98 34.482 61.564 L 34.482 59.164 C 34.67 58.58 34.91 58.023 35.199 57.5" stroke-opacity="0" stroke-miterlimit="10"></path></g><g><path fill="#4F4F4F" stroke="rgb(0,0,0)" d="M 34.482 59.164 L 34.482 61.564 C 34.316 62.087 34.189 62.63 34.107 63.195 L 34.107 60.795 C 34.189 60.229 34.316 59.686 34.482 59.164" stroke-opacity="0" stroke-miterlimit="10"></path></g><g><path fill="#4F4F4F" stroke="rgb(0,0,0)" d="M 34.107 60.795 L 34.107 63.195 C 34.08 63.384 34.06 63.578 34.041 63.775 L 34.041 61.375 C 34.061 61.18 34.08 60.986 34.107 60.795" stroke-opacity="0" stroke-miterlimit="10"></path></g></g></g></g><g><g><path fill="#4F4F4F" stroke="rgb(0,0,0)" d="M 58.193 68.541 L 59.49 68.541 Q 59.49 68.541 59.49 68.541 L 59.49 70.939 Q 59.49 70.939 59.49 70.939 L 58.193 70.939 Q 58.193 70.939 58.193 70.939 L 58.193 68.541 Q 58.193 68.541 58.193 68.541 Z" stroke-opacity="0" stroke-miterlimit="10"></path></g></g><g><g><path fill="#4F4F4F" stroke="rgb(0,0,0)" d="M 40.736 68.541 L 42.045 68.541 Q 42.045 68.541 42.045 68.541 L 42.045 70.939 Q 42.045 70.939 42.045 70.939 L 40.736 70.939 Q 40.736 70.939 40.736 70.939 L 40.736 68.541 Q 40.736 68.541 40.736 68.541 Z" stroke-opacity="0" stroke-miterlimit="10"></path></g></g><g><g><path fill="#ACACAC" stroke="rgb(0,0,0)" d="M 55.051 56.83 C 60.489 56.83 64.28 60.248 64.28 65.123 L 64.28 75.709 L 59.49 75.709 L 59.49 68.541 L 58.193 68.541 L 58.193 75.709 L 42.045 75.709 L 42.045 68.541 L 40.736 68.541 L 40.736 75.709 L 35.724 75.709 L 35.724 65.123 C 35.724 60.248 39.513 56.83 44.951 56.83 L 55.051 56.83 Z" stroke-opacity="0" stroke-miterlimit="10"></path></g></g><g><g><path fill="#4F4F4F" stroke="rgb(0,0,0)" d="M 59.49 75.709 L 64.279 75.709 Q 64.279 75.709 64.279 75.709 L 64.279 78.107 Q 64.279 78.107 64.279 78.107 L 59.49 78.107 Q 59.49 78.107 59.49 78.107 L 59.49 75.709 Q 59.49 75.709 59.49 75.709 Z" stroke-opacity="0" stroke-miterlimit="10"></path></g></g><g><g><path fill="#4F4F4F" stroke="rgb(0,0,0)" d="M 42.045 75.709 L 58.193 75.709 Q 58.193 75.709 58.193 75.709 L 58.193 78.107 Q 58.193 78.107 58.193 78.107 L 42.045 78.107 Q 42.045 78.107 42.045 78.107 L 42.045 75.709 Q 42.045 75.709 42.045 75.709 Z" stroke-opacity="0" stroke-miterlimit="10"></path></g></g><g><g><path fill="#4F4F4F" stroke="rgb(0,0,0)" d="M 35.725 75.709 L 40.737 75.709 Q 40.737 75.709 40.737 75.709 L 40.737 78.107 Q 40.737 78.107 40.737 78.107 L 35.725 78.107 Q 35.725 78.107 35.725 78.107 L 35.725 75.709 Q 35.725 75.709 35.725 75.709 Z" stroke-opacity="0" stroke-miterlimit="10"></path></g></g><g><g><path fill="#ACACAC" stroke="rgb(0,0,0)" d="M 34.852 21.893 C 39.252 21.893 42.832 25.557 42.832 30.036 C 42.832 34.542 39.252 38.192 34.852 38.192 C 30.461 38.192 26.897 34.542 26.897 30.036 C 26.896 25.557 30.461 21.893 34.852 21.893 Z" stroke-opacity="0" stroke-miterlimit="10"></path></g></g><g><g><g><path fill="#4F4F4F" stroke="rgb(0,0,0)" d="M 42.832 30.035 L 42.832 32.437 C 42.832 36.943 39.252 40.593 34.852 40.593 C 30.461 40.593 26.897 36.943 26.897 32.437 L 26.897 30.035 C 26.897 34.541 30.461 38.191 34.852 38.191 C 39.252 38.191 42.832 34.541 42.832 30.035 Z" stroke-opacity="0" stroke-miterlimit="10"></path></g></g><g clip-path="url(#wcJAMxgJeG8m)"><g><g><path fill="#4F4F4F" stroke="rgb(0,0,0)" d="M 42.832 30.035 L 42.832 32.437 C 42.832 32.845 42.801 33.246 42.746 33.636 L 42.746 31.234 C 42.801 30.844 42.832 30.443 42.832 30.035" stroke-opacity="0" stroke-miterlimit="10"></path></g><g><path fill="#4F4F4F" stroke="rgb(0,0,0)" d="M 42.746 31.234 L 42.746 33.636 C 42.68 34.097 42.574 34.546 42.434 34.978 L 42.434 32.578 C 42.574 32.146 42.68 31.695 42.746 31.234" stroke-opacity="0" stroke-miterlimit="10"></path></g><g><path fill="#4F4F4F" stroke="rgb(0,0,0)" d="M 42.434 32.578 L 42.434 34.978 C 42.272 35.488 42.061 35.976 41.807 36.437 L 41.807 34.037 C 42.061 33.576 42.271 33.09 42.434 32.578" stroke-opacity="0" stroke-miterlimit="10"></path></g><g><path fill="#4F4F4F" stroke="rgb(0,0,0)" d="M 41.807 34.037 L 41.807 36.437 C 40.436 38.917 37.832 40.593 34.852 40.593 C 30.461 40.593 26.897 36.943 26.897 32.437 L 26.897 30.035 C 26.897 34.541 30.461 38.191 34.852 38.191 C 37.832 38.191 40.436 36.518 41.807 34.037" stroke-opacity="0" stroke-miterlimit="10"></path></g></g></g></g></g></g></g></g><g transform="scale(1,1) matrix(1,0,0,1,467.77750000000003,120) translate(-12.5825,-20)"><text fill="#000000" stroke="none" font-family="Arial" font-size="12px" font-style="normal" font-weight="normal" text-decoration="none" x="0.099609375" y="11">Website Users</text></g><g transform="matrix(1,0,0,1,490.69500000000005,171.714)"><g transform="translate(0,0)"><g transform="translate(-495,-175) translate(4.30499999999995,3.2860000000000014) matrix(1,0,0,1,0,0)"><g><path fill="none" stroke="#000000" d="M 495.19500000000005 176.214 L 496.69196037469754 261" stroke-miterlimit="10" stroke-width="2"></path></g></g></g></g><g transform="translate(0,0) matrix(1,0,0,1,150,430)"><g><g transform="translate(0,0) scale(1,1.0000176513159056) translate(-23.577,-21.674)"><g><g><g><g><path fill="#F58536" stroke="rgb(0,0,0)" d="M 67.358 21.674 C 72.373 21.674 76.422 25.711 76.422 30.686 L 76.422 66.17 C 76.422 71.147 72.372 75.182 67.358 75.182 L 32.657 75.182 C 27.643 75.182 23.577 71.147 23.577 66.17 L 23.577 30.686 C 23.577 25.711 27.643 21.674 32.657 21.674 L 67.358 21.674 Z" stroke-opacity="0" stroke-miterlimit="10"></path></g></g><g><g><g><path fill="#9D5025" stroke="rgb(0,0,0)" d="M 76.423 66.17 L 76.423 69.315 C 76.423 74.292 72.373 78.327 67.359 78.327 L 67.359 75.182 C 72.373 75.182 76.423 71.146 76.423 66.17 Z" stroke-opacity="0" stroke-miterlimit="10"></path></g></g><g clip-path="url(#npVooZmah3fi)"><g><g><path fill="#9D5025" stroke="rgb(0,0,0)" d="M 76.423 66.17 L 76.423 69.315 C 76.423 69.753 76.39 70.184 76.331 70.606 L 76.331 67.461 C 76.39 67.039 76.423 66.607 76.423 66.17" stroke-opacity="0" stroke-miterlimit="10"></path></g><g><path fill="#9D5025" stroke="rgb(0,0,0)" d="M 76.331 67.461 L 76.331 70.606 C 76.257 71.106 76.143 71.592 75.994 72.063 L 75.994 68.918 C 76.144 68.447 76.257 67.961 76.331 67.461" stroke-opacity="0" stroke-miterlimit="10"></path></g><g><path fill="#9D5025" stroke="rgb(0,0,0)" d="M 75.994 68.918 L 75.994 72.063 C 75.815 72.618 75.586 73.147 75.307 73.649 L 75.307 70.503 C 75.586 70.002 75.815 69.473 75.994 68.918" stroke-opacity="0" stroke-miterlimit="10"></path></g><g><path fill="#9D5025" stroke="rgb(0,0,0)" d="M 75.308 70.502 L 75.308 73.648 C 73.77 76.435 70.79 78.326 67.359 78.326 L 67.359 75.181 C 70.79 75.182 73.77 73.291 75.308 70.502" stroke-opacity="0" stroke-miterlimit="10"></path></g></g></g></g><g><g><path fill="#9D5025" stroke="rgb(0,0,0)" d="M 32.282 75.182 L 67.421 75.182 Q 67.421 75.182 67.421 75.182 L 67.421 78.327 Q 67.421 78.327 67.421 78.327 L 32.282 78.327 Q 32.282 78.327 32.282 78.327 L 32.282 75.182 Q 32.282 75.182 32.282 75.182 Z" stroke-opacity="0" stroke-miterlimit="10"></path></g></g><g><g><g><path fill="#9D5025" stroke="rgb(0,0,0)" d="M 32.657 75.182 L 32.657 78.327 C 27.643 78.327 23.577 74.292 23.577 69.315 L 23.577 66.17 C 23.577 71.146 27.644 75.182 32.657 75.182 Z" stroke-opacity="0" stroke-miterlimit="10"></path></g></g><g clip-path="url(#RI4Fap3o1OuD)"><g><g><path fill="#9D5025" stroke="rgb(0,0,0)" d="M 33.032 75.182 L 33.032 78.327 C 28.018 78.327 23.577 74.292 23.577 69.315 L 23.577 66.17 C 23.577 71.147 27.643 75.182 32.657 75.182" stroke-opacity="0" stroke-miterlimit="10"></path></g></g></g></g></g></g></g></g></g><g transform="scale(1,1) matrix(1,0,0,1,152,430) translate(-16.577,58.654)"><text fill="#000000" stroke="none" font-family="Arial" font-size="12px" font-style="normal" font-weight="normal" text-decoration="none" x="0.3115234375" y="11">Staging Server</text><text fill="#000000" stroke="none" font-family="Arial" font-size="12px" font-style="normal" font-weight="normal" text-decoration="none" x="16.9873046875" y="25">- Ubuntu</text><text fill="#000000" stroke="none" font-family="Arial" font-size="12px" font-style="normal" font-weight="normal" text-decoration="none" x="20.9951171875" y="39">- Nginx</text><text fill="#000000" stroke="none" font-family="Arial" font-size="12px" font-style="normal" font-weight="normal" text-decoration="none" x="22.9990234375" y="53">- Rails</text><text fill="#000000" stroke="none" font-family="Arial" font-size="12px" font-style="normal" font-weight="normal" text-decoration="none" x="15.66015625" y="67">- Unicorn</text><text fill="#000000" stroke="none" font-family="Arial" font-size="12px" font-style="normal" font-weight="normal" text-decoration="none" x="16.65625" y="81">- Sidekiq</text><text fill="#000000" stroke="none" font-family="Arial" font-size="12px" font-style="normal" font-weight="normal" text-decoration="none" x="20.9951171875" y="95">- Redis</text><text fill="#000000" stroke="none" font-family="Arial" font-size="12px" font-style="normal" font-weight="normal" text-decoration="none" x="2.65234375" y="109">- ElastiSearch</text><text fill="#000000" stroke="none" font-family="Arial" font-size="12px" font-style="normal" font-weight="normal" text-decoration="none" x="3.6513671875" y="123">- PostgreSQL</text></g><g transform="translate(0,0) matrix(1,0,0,1,155.423,639.365)"><g><g transform="translate(0,0) scale(0.5,0.5)"><g><g transform="scale(2,2)"><path fill="#FFFFFF" stroke="none" d="M 50 0 L 50 43.75 Q 50 50 25 50 Q 0 50 0 43.75 L 0 0 Q 0 -6.25 25 -6.25 Q 50 -6.25 50 0"></path><path fill="none" stroke="#333333" d="M 50 0 M 50 0 L 50 43.75 Q 50 50 25 50 Q 0 50 0 43.75 L 0 0 Q 0 -6.25 25 -6.25 Q 50 -6.25 50 0" stroke-miterlimit="10" stroke-width="2"></path></g></g><g><g transform="scale(2,2)"><path fill="rgb(0,0,0)" stroke="none" d="M 0 0 Q 0 6.25 25 6.25 Q 50 6.25 50 0 M 0 3.125 Q 0 9.375 25 9.375 Q 50 9.375 50 3.125 M 0 6.25 Q 0 12.5 25 12.5 Q 50 12.5 50 6.25" fill-opacity="0"></path><path fill="none" stroke="#333333" d="M 0 0 M 0 0 Q 0 6.25 25 6.25 Q 50 6.25 50 0 M 0 3.125 Q 0 9.375 25 9.375 Q 50 9.375 50 3.125 M 0 6.25 Q 0 12.5 25 12.5 Q 50 12.5 50 6.25" stroke-miterlimit="10"></path></g></g></g></g></g><g transform="scale(1,1) matrix(1,0,0,1,156.423,639.365) translate(2,52)"><text fill="#000000" stroke="none" font-family="Arial" font-size="12px" font-style="normal" font-weight="normal" text-decoration="none" x="3.3261718749999964" y="11">GitHub</text></g><g transform="matrix(1,0,0,1,321.4920328698389,577.4999999999998)"><g transform="translate(0,0)"><g transform="translate(-413,-582) translate(91.50796713016109,4.500000000000227) matrix(1,0,0,1,0,0)"><g><path fill="none" stroke="#000000" d="M 325.9920328698389 581.9999999999999 L 651.0138455195131 581.9999999999998" stroke-miterlimit="10" stroke-width="2"></path></g></g></g></g><g transform="matrix(1,0,0,1,105.5,453.827)"><g transform="translate(0,0)"><g transform="translate(-149,-460) translate(43.5,6.173000000000002) matrix(1,0,0,1,0,0)"><g><path fill="none" stroke="#000000" d="M 150 458.327 L 110 458.327 L 110 664.365 L 155.423 664.365" stroke-miterlimit="10" stroke-width="2"></path></g></g></g></g><g transform="translate(0,0) matrix(1,0,0,1,145.42300000000003,242.893)"><g><g transform="translate(0,0) scale(1,1) translate(-20.582,-21.893)"><g><g><g><path fill="#ACACAC" stroke="rgb(0,0,0)" d="M 65.15 21.893 C 69.539 21.893 73.117 25.543 73.117 30.036 C 73.117 34.542 69.539 38.192 65.15 38.192 C 60.761 38.192 57.183 34.542 57.183 30.036 C 57.184 25.543 60.762 21.893 65.15 21.893 Z" stroke-opacity="0" stroke-miterlimit="10"></path></g></g><g><g><g><path fill="#4F4F4F" stroke="rgb(0,0,0)" d="M 73.117 30.035 L 73.117 32.437 C 73.117 36.943 69.539 40.593 65.15 40.593 C 60.761 40.593 57.183 36.943 57.183 32.437 L 57.183 30.035 C 57.183 34.541 60.761 38.191 65.15 38.191 C 69.539 38.191 73.117 34.541 73.117 30.035 Z" stroke-opacity="0" stroke-miterlimit="10"></path></g></g><g clip-path="url(#NR7ZQAMcVb1r)"><g><g><path fill="#4F4F4F" stroke="rgb(0,0,0)" d="M 73.117 30.035 L 73.117 32.437 C 73.117 32.845 73.09 33.248 73.031 33.636 L 73.031 31.236 C 73.09 30.844 73.117 30.443 73.117 30.035" stroke-opacity="0" stroke-miterlimit="10"></path></g><g><path fill="#4F4F4F" stroke="rgb(0,0,0)" d="M 73.031 31.236 L 73.031 33.636 C 72.965 34.097 72.861 34.546 72.72 34.978 L 72.72 32.578 C 72.861 32.146 72.965 31.695 73.031 31.236" stroke-opacity="0" stroke-miterlimit="10"></path></g><g><path fill="#4F4F4F" stroke="rgb(0,0,0)" d="M 72.721 32.578 L 72.721 34.978 C 72.559 35.49 72.346 35.978 72.094 36.441 L 72.094 34.039 C 72.346 33.576 72.559 33.09 72.721 32.578" stroke-opacity="0" stroke-miterlimit="10"></path></g><g><path fill="#4F4F4F" stroke="rgb(0,0,0)" d="M 72.094 34.039 L 72.094 36.441 C 70.723 38.918 68.123 40.593 65.151 40.593 C 60.762 40.593 57.184 36.943 57.184 32.437 L 57.184 30.035 C 57.184 34.541 60.762 38.191 65.151 38.191 C 68.123 38.191 70.723 36.518 72.094 34.039" stroke-opacity="0" stroke-miterlimit="10"></path></g></g></g></g><g><g><path fill="#ACACAC" stroke="rgb(0,0,0)" d="M 50 33.031 C 53.904 33.031 57.068 36.275 57.068 40.258 C 57.068 44.246 53.904 47.487 50 47.487 C 46.109 47.487 42.943 44.247 42.943 40.258 C 42.943 36.275 46.109 33.031 50 33.031 Z" stroke-opacity="0" stroke-miterlimit="10"></path></g></g><g><g><g><path fill="#4F4F4F" stroke="rgb(0,0,0)" d="M 57.068 40.258 L 57.068 42.66 C 57.068 46.646 53.904 49.889 50 49.889 C 46.109 49.889 42.943 46.647 42.943 42.66 L 42.943 40.258 C 42.943 44.246 46.109 47.487 50 47.487 C 53.904 47.486 57.068 44.246 57.068 40.258 Z" stroke-opacity="0" stroke-miterlimit="10"></path></g></g><g clip-path="url(#bSLZyuuTd0rf)"><g><g><path fill="#4F4F4F" stroke="rgb(0,0,0)" d="M 57.068 40.258 L 57.068 42.66 C 57.068 43.021 57.043 43.375 56.994 43.721 L 56.994 41.319 C 57.043 40.973 57.068 40.619 57.068 40.258" stroke-opacity="0" stroke-miterlimit="10"></path></g><g><path fill="#4F4F4F" stroke="rgb(0,0,0)" d="M 56.994 41.318 L 56.994 43.72 C 56.933 44.128 56.844 44.527 56.719 44.913 L 56.719 42.511 C 56.844 42.127 56.934 41.729 56.994 41.318" stroke-opacity="0" stroke-miterlimit="10"></path></g><g><path fill="#4F4F4F" stroke="rgb(0,0,0)" d="M 56.719 42.512 L 56.719 44.914 C 56.574 45.363 56.387 45.797 56.162 46.207 L 56.162 43.807 C 56.387 43.398 56.574 42.963 56.719 42.512" stroke-opacity="0" stroke-miterlimit="10"></path></g><g><path fill="#4F4F4F" stroke="rgb(0,0,0)" d="M 56.162 43.807 L 56.162 46.207 C 54.947 48.402 52.642 49.889 50 49.889 C 46.109 49.889 42.943 46.647 42.943 42.66 L 42.943 40.258 C 42.943 44.246 46.109 47.487 50 47.487 C 52.643 47.486 54.947 46 56.162 43.807" stroke-opacity="0" stroke-miterlimit="10"></path></g></g></g></g><g><g><path fill="#4F4F4F" stroke="rgb(0,0,0)" d="M 55.664 52.139 L 55.051 54.766 L 50.875 54.766 L 50.875 52.365 L 55.664 52.139 Z" stroke-opacity="0" stroke-miterlimit="10"></path></g></g><g><g><path fill="#4F4F4F" stroke="rgb(0,0,0)" d="M 49.129 52.365 L 49.129 54.766 L 44.951 54.766 L 44.164 52.139 L 49.129 52.365 Z" stroke-opacity="0" stroke-miterlimit="10"></path></g></g><g><g><path fill="#4F4F4F" stroke="rgb(0,0,0)" d="M 73.332 54.195 L 74.641 54.195 Q 74.641 54.195 74.641 54.195 L 74.641 56.597 Q 74.641 56.597 74.641 56.597 L 73.332 56.597 Q 73.332 56.597 73.332 56.597 L 73.332 54.195 Q 73.332 54.195 73.332 54.195 Z" stroke-opacity="0" stroke-miterlimit="10"></path></g></g><g><g><path fill="#4F4F4F" stroke="rgb(0,0,0)" d="M 25.598 54.209 L 26.897 54.209 Q 26.897 54.209 26.897 54.209 L 26.897 56.611 Q 26.897 56.611 26.897 56.611 L 25.598 56.611 Q 25.598 56.611 25.598 56.611 L 25.598 54.209 Q 25.598 54.209 25.598 54.209 Z" stroke-opacity="0" stroke-miterlimit="10"></path></g></g><g><g><path fill="#4F4F4F" stroke="rgb(0,0,0)" d="M 26.896 61.375 L 34.041 61.375 Q 34.041 61.375 34.041 61.375 L 34.041 63.775 Q 34.041 63.775 34.041 63.775 L 26.896 63.775 Q 26.896 63.775 26.896 63.775 L 26.896 61.375 Q 26.896 61.375 26.896 61.375 Z" stroke-opacity="0" stroke-miterlimit="10"></path></g></g><g><g><path fill="#4F4F4F" stroke="rgb(0,0,0)" d="M 20.584 61.375 L 25.598 61.375 Q 25.598 61.375 25.598 61.375 L 25.598 63.775 Q 25.598 63.775 25.598 63.775 L 20.584 63.775 Q 20.584 63.775 20.584 63.775 L 20.584 61.375 Q 20.584 61.375 20.584 61.375 Z" stroke-opacity="0" stroke-miterlimit="10"></path></g></g><g><g><path fill="#ACACAC" stroke="rgb(0,0,0)" d="M 70.188 42.486 C 75.626 42.486 79.417 45.904 79.417 50.781 L 79.417 61.375 L 74.642 61.375 L 74.642 54.195 L 73.333 54.195 L 73.333 61.375 L 65.96 61.375 C 65.478 56.018 61.138 52.365 55.052 52.365 L 50.876 52.365 L 50.876 51.459 C 55.538 51.039 59.253 47.252 59.665 42.51 C 59.815 42.5 59.952 42.487 60.103 42.487 L 70.188 42.487 Z" stroke-opacity="0" stroke-miterlimit="10"></path></g></g><g><g><path fill="#4F4F4F" stroke="rgb(0,0,0)" d="M 74.641 61.375 L 79.416 61.375 Q 79.416 61.375 79.416 61.375 L 79.416 63.775 Q 79.416 63.775 79.416 63.775 L 74.641 63.775 Q 74.641 63.775 74.641 63.775 L 74.641 61.375 Q 74.641 61.375 74.641 61.375 Z" stroke-opacity="0" stroke-miterlimit="10"></path></g></g><g><g><path fill="#4F4F4F" stroke="rgb(0,0,0)" d="M 65.959 61.375 L 73.332 61.375 Q 73.332 61.375 73.332 61.375 L 73.332 63.775 Q 73.332 63.775 73.332 63.775 L 65.959 63.775 Q 65.959 63.775 65.959 63.775 L 65.959 61.375 Q 65.959 61.375 65.959 61.375 Z" stroke-opacity="0" stroke-miterlimit="10"></path></g></g><g><g><g><path fill="#4F4F4F" stroke="rgb(0,0,0)" d="M 65.959 61.375 L 65.959 63.775 C 65.477 58.418 61.137 54.765 55.051 54.765 L 55.051 52.365 C 61.137 52.365 65.477 56.018 65.959 61.375 Z" stroke-opacity="0" stroke-miterlimit="10"></path></g></g><g clip-path="url(#mMZLi4yTv6TM)"><g><g><path fill="#4F4F4F" stroke="rgb(0,0,0)" d="M 65.959 61.375 L 65.959 63.775 C 65.477 58.418 61.137 54.765 55.051 54.765 L 55.051 52.365 C 61.137 52.365 65.477 56.018 65.959 61.375" stroke-opacity="0" stroke-miterlimit="10"></path></g></g></g></g><g><g><path fill="#ACACAC" stroke="rgb(0,0,0)" d="M 39.898 42.5 C 40.05 42.5 40.199 42.51 40.347 42.51 C 40.761 47.252 44.474 51.039 49.128 51.459 L 49.128 52.365 L 44.95 52.365 C 38.866 52.365 34.514 56.017 34.04 61.375 L 26.895 61.375 L 26.895 54.209 L 25.596 54.209 L 25.596 61.375 L 20.582 61.375 L 20.582 50.793 C 20.582 45.904 24.375 42.5 29.812 42.5 L 39.898 42.5 Z" stroke-opacity="0" stroke-miterlimit="10"></path></g></g><g><g><g><path fill="#4F4F4F" stroke="rgb(0,0,0)" d="M 44.951 52.365 L 44.951 54.765 C 38.867 54.765 34.515 58.417 34.041 63.775 L 34.041 61.375 C 34.516 56.018 38.867 52.365 44.951 52.365 Z" stroke-opacity="0" stroke-miterlimit="10"></path></g></g><g clip-path="url(#ivHG3nkkDyUM)"><g><g><path fill="#4F4F4F" stroke="rgb(0,0,0)" d="M 44.951 52.365 L 44.951 54.765 C 40.48 54.765 36.947 56.734 35.199 59.904 L 35.199 57.5 C 36.947 54.332 40.48 52.365 44.951 52.365" stroke-opacity="0" stroke-miterlimit="10"></path></g><g><path fill="#4F4F4F" stroke="rgb(0,0,0)" d="M 35.199 57.5 L 35.199 59.904 C 34.91 60.424 34.67 60.98 34.482 61.564 L 34.482 59.164 C 34.67 58.58 34.91 58.023 35.199 57.5" stroke-opacity="0" stroke-miterlimit="10"></path></g><g><path fill="#4F4F4F" stroke="rgb(0,0,0)" d="M 34.482 59.164 L 34.482 61.564 C 34.316 62.087 34.189 62.63 34.107 63.195 L 34.107 60.795 C 34.189 60.229 34.316 59.686 34.482 59.164" stroke-opacity="0" stroke-miterlimit="10"></path></g><g><path fill="#4F4F4F" stroke="rgb(0,0,0)" d="M 34.107 60.795 L 34.107 63.195 C 34.08 63.384 34.06 63.578 34.041 63.775 L 34.041 61.375 C 34.061 61.18 34.08 60.986 34.107 60.795" stroke-opacity="0" stroke-miterlimit="10"></path></g></g></g></g><g><g><path fill="#4F4F4F" stroke="rgb(0,0,0)" d="M 58.193 68.541 L 59.49 68.541 Q 59.49 68.541 59.49 68.541 L 59.49 70.939 Q 59.49 70.939 59.49 70.939 L 58.193 70.939 Q 58.193 70.939 58.193 70.939 L 58.193 68.541 Q 58.193 68.541 58.193 68.541 Z" stroke-opacity="0" stroke-miterlimit="10"></path></g></g><g><g><path fill="#4F4F4F" stroke="rgb(0,0,0)" d="M 40.736 68.541 L 42.045 68.541 Q 42.045 68.541 42.045 68.541 L 42.045 70.939 Q 42.045 70.939 42.045 70.939 L 40.736 70.939 Q 40.736 70.939 40.736 70.939 L 40.736 68.541 Q 40.736 68.541 40.736 68.541 Z" stroke-opacity="0" stroke-miterlimit="10"></path></g></g><g><g><path fill="#ACACAC" stroke="rgb(0,0,0)" d="M 55.051 56.83 C 60.489 56.83 64.28 60.248 64.28 65.123 L 64.28 75.709 L 59.49 75.709 L 59.49 68.541 L 58.193 68.541 L 58.193 75.709 L 42.045 75.709 L 42.045 68.541 L 40.736 68.541 L 40.736 75.709 L 35.724 75.709 L 35.724 65.123 C 35.724 60.248 39.513 56.83 44.951 56.83 L 55.051 56.83 Z" stroke-opacity="0" stroke-miterlimit="10"></path></g></g><g><g><path fill="#4F4F4F" stroke="rgb(0,0,0)" d="M 59.49 75.709 L 64.279 75.709 Q 64.279 75.709 64.279 75.709 L 64.279 78.107 Q 64.279 78.107 64.279 78.107 L 59.49 78.107 Q 59.49 78.107 59.49 78.107 L 59.49 75.709 Q 59.49 75.709 59.49 75.709 Z" stroke-opacity="0" stroke-miterlimit="10"></path></g></g><g><g><path fill="#4F4F4F" stroke="rgb(0,0,0)" d="M 42.045 75.709 L 58.193 75.709 Q 58.193 75.709 58.193 75.709 L 58.193 78.107 Q 58.193 78.107 58.193 78.107 L 42.045 78.107 Q 42.045 78.107 42.045 78.107 L 42.045 75.709 Q 42.045 75.709 42.045 75.709 Z" stroke-opacity="0" stroke-miterlimit="10"></path></g></g><g><g><path fill="#4F4F4F" stroke="rgb(0,0,0)" d="M 35.725 75.709 L 40.737 75.709 Q 40.737 75.709 40.737 75.709 L 40.737 78.107 Q 40.737 78.107 40.737 78.107 L 35.725 78.107 Q 35.725 78.107 35.725 78.107 L 35.725 75.709 Q 35.725 75.709 35.725 75.709 Z" stroke-opacity="0" stroke-miterlimit="10"></path></g></g><g><g><path fill="#ACACAC" stroke="rgb(0,0,0)" d="M 34.852 21.893 C 39.252 21.893 42.832 25.557 42.832 30.036 C 42.832 34.542 39.252 38.192 34.852 38.192 C 30.461 38.192 26.897 34.542 26.897 30.036 C 26.896 25.557 30.461 21.893 34.852 21.893 Z" stroke-opacity="0" stroke-miterlimit="10"></path></g></g><g><g><g><path fill="#4F4F4F" stroke="rgb(0,0,0)" d="M 42.832 30.035 L 42.832 32.437 C 42.832 36.943 39.252 40.593 34.852 40.593 C 30.461 40.593 26.897 36.943 26.897 32.437 L 26.897 30.035 C 26.897 34.541 30.461 38.191 34.852 38.191 C 39.252 38.191 42.832 34.541 42.832 30.035 Z" stroke-opacity="0" stroke-miterlimit="10"></path></g></g><g clip-path="url(#DmDRrPN1xP7K)"><g><g><path fill="#4F4F4F" stroke="rgb(0,0,0)" d="M 42.832 30.035 L 42.832 32.437 C 42.832 32.845 42.801 33.246 42.746 33.636 L 42.746 31.234 C 42.801 30.844 42.832 30.443 42.832 30.035" stroke-opacity="0" stroke-miterlimit="10"></path></g><g><path fill="#4F4F4F" stroke="rgb(0,0,0)" d="M 42.746 31.234 L 42.746 33.636 C 42.68 34.097 42.574 34.546 42.434 34.978 L 42.434 32.578 C 42.574 32.146 42.68 31.695 42.746 31.234" stroke-opacity="0" stroke-miterlimit="10"></path></g><g><path fill="#4F4F4F" stroke="rgb(0,0,0)" d="M 42.434 32.578 L 42.434 34.978 C 42.272 35.488 42.061 35.976 41.807 36.437 L 41.807 34.037 C 42.061 33.576 42.271 33.09 42.434 32.578" stroke-opacity="0" stroke-miterlimit="10"></path></g><g><path fill="#4F4F4F" stroke="rgb(0,0,0)" d="M 41.807 34.037 L 41.807 36.437 C 40.436 38.917 37.832 40.593 34.852 40.593 C 30.461 40.593 26.897 36.943 26.897 32.437 L 26.897 30.035 C 26.897 34.541 30.461 38.191 34.852 38.191 C 37.832 38.191 40.436 36.518 41.807 34.037" stroke-opacity="0" stroke-miterlimit="10"></path></g></g></g></g></g></g></g></g><g transform="scale(1,1) matrix(1,0,0,1,147.42300000000003,242.893) translate(-40.082499999999996,-20)"><text fill="#000000" stroke="none" font-family="Arial" font-size="12px" font-style="normal" font-weight="normal" text-decoration="none" x="0.142578125" y="11">Admin Users/Developers</text></g><g transform="matrix(1,0,0,1,170.34050000000002,294.60699999999997)"><g transform="translate(0,0)"><g transform="translate(-171,-301) translate(0.65949999999998,6.393000000000029) matrix(1,0,0,1,0,0)"><g><path fill="none" stroke="#000000" d="M 174.84050000000002 299.10699999999997 L 176.423 430" stroke-miterlimit="10" stroke-width="2"></path></g></g></g></g><g transform="translate(0,0) matrix(1,0,0,1,240.34050000000002,420)"><g><g transform="translate(0,0) scale(0.6608249999999998,0.8)"><g><g transform="scale(1.5132599402262328,1.25)"><path fill="#FFFFFF" stroke="none" d="M 0 24 L 26.082499999999982 24 L 26.082499999999982 0 L 66.08249999999998 40 L 26.082499999999982 80 L 26.082499999999982 56 L 0 56 L 0 24 Z"></path><path fill="none" stroke="#333333" d="M 0 24 M 0 24 L 26.082499999999982 24 L 26.082499999999982 0 L 66.08249999999998 40 L 26.082499999999982 80 L 26.082499999999982 56 L 0 56 L 0 24 Z" stroke-miterlimit="10" stroke-width="2"></path></g></g></g></g></g><g transform="scale(1,1) matrix(1,0,0,1,242.34050000000002,420) translate(2,34.5)"><text fill="#000000" stroke="none" font-family="Arial" font-size="10px" font-style="normal" font-weight="normal" text-decoration="none" x="4.861562499999991" y="9">Capistrano</text></g><g transform="translate(0,0) matrix(1,0,0,1,461.807,622.5)"><g><g transform="translate(0,0) scale(1,1) translate(-20.192,-14)"><g><g><g><path fill="#99BCE3" stroke="rgb(0,0,0)" d="M 79.808 62.657 L 49.999 58.951 L 20.192 62.657 L 49.999 71.601 L 79.808 62.657 Z" stroke-opacity="0" stroke-miterlimit="10"></path></g><g><path fill="#1A476F" stroke="rgb(0,0,0)" d="M 79.808 37.343 L 49.999 41.049 L 20.192 37.343 L 49.999 28.4 L 79.808 37.343 Z" stroke-opacity="0" stroke-miterlimit="10"></path></g><g><path fill="#205B98" stroke="rgb(0,0,0)" d="M 50 14 L 20.192 28.904 L 20.192 37.343 L 50 28.4 L 50 14 Z" stroke-opacity="0" stroke-miterlimit="10"></path></g><g><path fill="#205B98" stroke="rgb(0,0,0)" d="M 50 71.6 L 20.192 62.658 L 20.192 71.096 L 50 86 L 50 71.6 Z" stroke-opacity="0" stroke-miterlimit="10"></path></g><g><path fill="#205B98" stroke="rgb(0,0,0)" d="M 50 60.888 L 37.399 58.983 L 37.399 41.162 L 50 39.287 L 50 60.888 Z" stroke-opacity="0" stroke-miterlimit="10"></path></g><g><path fill="#5294CF" stroke="rgb(0,0,0)" d="M 50 14 L 79.808 28.904 L 79.808 37.343 L 50 28.4 L 50 14 Z" stroke-opacity="0" stroke-miterlimit="10"></path></g><g><path fill="#5294CF" stroke="rgb(0,0,0)" d="M 50 71.6 L 79.808 62.658 L 79.808 71.096 L 50 86 L 50 71.6 Z" stroke-opacity="0" stroke-miterlimit="10"></path></g><g><path fill="#5294CF" stroke="rgb(0,0,0)" d="M 50 60.888 L 62.601 58.983 L 62.601 41.162 L 50 39.287 L 50 60.888 Z" stroke-opacity="0" stroke-miterlimit="10"></path></g></g></g></g></g></g><g transform="scale(1,1) matrix(1,0,0,1,463.807,622.5) translate(-19.692,74)"><text fill="#000000" stroke="none" font-family="Arial" font-size="10px" font-style="normal" font-weight="normal" text-decoration="none" x="0.09375" y="9">ElasticCache Cluster</text><text fill="#000000" stroke="none" font-family="Arial" font-size="10px" font-style="normal" font-weight="normal" text-decoration="none" x="17.3203125" y="20">- Redis Node</text></g><g transform="matrix(1,0,0,1,347.9645000000001,653.969)"><g transform="translate(0,0)"><g transform="translate(-350,-662) translate(2.0354999999998995,8.030999999999949) matrix(1,0,0,1,0,0)"><g><path fill="none" stroke="#000000" d="M 352.4645000000001 658.469 L 461.807 658.5" stroke-miterlimit="10" stroke-width="2"></path></g></g></g></g><g transform="translate(0,0) matrix(1,0,0,1,780,430.58299999999997)"><g><g transform="translate(0,0) scale(1,1) translate(-22.414,-21.628)"><g><g><g><g><g><g><g><path fill="#8C3323" stroke="rgb(0,0,0)" d="M 77.586 28.061 L 77.586 30.833 C 77.586 34.392 65.242 37.266 50.008 37.266 C 34.758 37.266 22.414 34.392 22.414 30.833 L 22.414 28.061 C 22.414 31.62 34.758 34.493 50.008 34.493 C 65.242 34.492 77.586 31.619 77.586 28.061 Z" stroke-opacity="0" stroke-miterlimit="10"></path></g></g><g clip-path="url(#8kxfTi4nz99y)"><g><g><path fill="#8C3323" stroke="rgb(0,0,0)" d="M 77.586 28.061 L 77.586 30.833 C 77.586 30.917 77.58 31.001 77.566 31.083 L 77.566 28.312 C 77.58 28.228 77.586 28.145 77.586 28.061" stroke-opacity="0" stroke-miterlimit="10"></path></g><g><path fill="#8C3323" stroke="rgb(0,0,0)" d="M 77.566 28.312 L 77.566 31.083 C 77.548 31.181 77.527 31.276 77.492 31.372 L 77.492 28.599 C 77.527 28.503 77.549 28.407 77.566 28.312" stroke-opacity="0" stroke-miterlimit="10"></path></g><g><path fill="#8C3323" stroke="rgb(0,0,0)" d="M 77.492 28.599 L 77.492 31.372 C 77.443 31.507 77.379 31.64 77.297 31.772 L 77.297 28.999 C 77.379 28.866 77.443 28.734 77.492 28.599" stroke-opacity="0" stroke-miterlimit="10"></path></g><g><path fill="#8C3323" stroke="rgb(0,0,0)" d="M 77.297 28.999 L 77.297 31.772 C 75.352 34.883 63.877 37.265 50.008 37.265 C 34.758 37.265 22.414 34.391 22.414 30.832 L 22.414 28.06 C 22.414 31.619 34.758 34.492 50.008 34.492 C 63.877 34.492 75.352 32.11 77.297 28.999" stroke-opacity="0" stroke-miterlimit="10"></path></g></g></g></g><g><g><path fill="#E15343" stroke="rgb(0,0,0)" d="M 50.008 21.628 C 65.242 21.628 77.586 24.503 77.586 28.061 C 77.586 31.62 65.242 34.493 50.008 34.493 C 34.758 34.493 22.414 31.62 22.414 28.061 C 22.414 24.503 34.758 21.628 50.008 21.628 Z" stroke-opacity="0" stroke-miterlimit="10"></path></g></g><g><g><path fill="#8C3323" stroke="rgb(0,0,0)" d="M 77.428 33.006 L 77.428 35.779 L 68.387 74.069 L 67.67 72.257 L 77.428 33.006 Z" stroke-opacity="0" stroke-miterlimit="10"></path></g></g><g><g><path fill="#8C3323" stroke="rgb(0,0,0)" d="M 31.613 71.296 L 31.613 74.069 L 22.572 35.779 L 22.572 33.006 L 31.613 71.296 Z" stroke-opacity="0" stroke-miterlimit="10"></path></g></g><g><g><g><path fill="#8C3323" stroke="rgb(0,0,0)" d="M 68.387 71.296 L 68.387 74.069 C 68.387 76.456 60.17 78.372 50.008 78.372 C 39.846 78.372 31.613 76.456 31.613 74.069 L 31.613 71.296 C 31.613 73.685 39.845 75.599 50.008 75.599 C 60.171 75.599 68.387 73.685 68.387 71.296 Z" stroke-opacity="0" stroke-miterlimit="10"></path></g></g><g clip-path="url(#4F16wcULZugE)"><g><g><path fill="#8C3323" stroke="rgb(0,0,0)" d="M 68.387 71.296 L 68.387 74.069 C 68.387 74.126 68.383 74.181 68.375 74.237 L 68.375 71.466 C 68.383 71.409 68.387 71.353 68.387 71.296" stroke-opacity="0" stroke-miterlimit="10"></path></g><g><path fill="#8C3323" stroke="rgb(0,0,0)" d="M 68.375 71.466 L 68.375 74.237 C 68.363 74.303 68.348 74.368 68.324 74.433 L 68.324 71.661 C 68.348 71.596 68.363 71.53 68.375 71.466" stroke-opacity="0" stroke-miterlimit="10"></path></g><g><path fill="#8C3323" stroke="rgb(0,0,0)" d="M 68.324 71.661 L 68.324 74.433 C 68.291 74.524 68.248 74.613 68.193 74.701 L 68.193 71.929 C 68.248 71.839 68.291 71.751 68.324 71.661" stroke-opacity="0" stroke-miterlimit="10"></path></g><g><path fill="#8C3323" stroke="rgb(0,0,0)" d="M 68.67 71.007 L 68.193 74.701 C 66.892 76.785 59.254 78.372 50.007 78.372 C 39.845 78.372 31.612 76.456 31.612 74.069 L 31.612 71.296 C 31.612 73.685 39.844 75.599 50.007 75.599 C 59.253 75.599 66.892 74.014 68.193 71.929" stroke-opacity="0" stroke-miterlimit="10"></path></g></g></g></g><g><g><path fill="#E15343" stroke="rgb(0,0,0)" d="M 50.008 38.752 C 64.248 38.752 75.959 36.237 77.428 33.006 L 68.387 71.296 C 68.387 73.685 60.17 75.599 50.008 75.599 C 39.846 75.599 31.613 73.685 31.613 71.296 L 22.572 33.006 C 24.043 36.237 35.77 38.752 50.008 38.752 Z" stroke-opacity="0" stroke-miterlimit="10"></path></g></g></g></g><g><path fill="#FFFFFF" stroke="rgb(0,0,0)" d="M 43.762 42.854 L 55.239 42.854 Q 55.239 42.854 55.239 42.854 L 55.239 54.252 Q 55.239 54.252 55.239 54.252 L 43.762 54.252 Q 43.762 54.252 43.762 54.252 L 43.762 42.854 Q 43.762 42.854 43.762 42.854 Z" stroke-opacity="0" stroke-miterlimit="10"></path></g><g><path fill="#FFFFFF" stroke="rgb(0,0,0)" d="M 40.287 58.28 C 43.41183 58.28 45.945 60.79616 45.945 63.9 C 45.945 67.00384 43.41183 69.52 40.287 69.52 C 37.16217 69.52 34.629 67.00384 34.629 63.9 C 34.629 60.79616 37.16217 58.28 40.287 58.28 Z" stroke-opacity="0" stroke-miterlimit="10"></path></g><g><path fill="#FFFFFF" stroke="rgb(0,0,0)" d="M 64.09 69.257 L 52.748 69.257 L 58.42 58.784 L 64.09 69.257 Z" stroke-opacity="0" stroke-miterlimit="10"></path></g></g></g></g></g></g><g transform="scale(1,1) matrix(1,0,0,1,782,430.58299999999997) translate(-11.414000000000001,58.744)"><text fill="#000000" stroke="none" font-family="Arial" font-size="10px" font-style="normal" font-weight="normal" text-decoration="none" x="13.20947265625" y="9">S3 Bucket</text><text fill="#000000" stroke="none" font-family="Arial" font-size="10px" font-style="normal" font-weight="normal" text-decoration="none" x="0.14794921875" y="20">- Image Storage</text></g><g transform="translate(0,0) matrix(1,0,0,1,779.9999999999999,543.5)"><g><g transform="translate(0,0) scale(1,1)"><g><g><path fill="#886A2A" stroke="rgb(0,0,0)" d="M 14.605 11.479 L 0 34.729 L 14.605 58.126 L 14.605 11.479 Z" stroke-opacity="0" stroke-miterlimit="10"></path></g><g><path fill="#D9A740" stroke="rgb(0,0,0)" d="M 30.914 53.804 L 14.604 57.984 L 14.604 11.479 L 30.914 15.657 L 30.914 53.804 Z" stroke-opacity="0" stroke-miterlimit="10"></path></g><g><path fill="#886A2A" stroke="rgb(0,0,0)" d="M 42.795 29.45 L 50.355 40.267 L 61.733 17.331 L 53.871 18.632 L 42.795 29.45 Z" stroke-opacity="0" stroke-miterlimit="10"></path></g><g><path fill="#886A2A" stroke="rgb(0,0,0)" d="M 40.736 29.829 L 50.355 29.266 L 35.822 0 L 26.85 3.929 L 40.736 29.829 Z" stroke-opacity="0" stroke-miterlimit="10"></path></g><g><path fill="#D9A740" stroke="rgb(0,0,0)" d="M 35.822 0 L 59.861 12.019 L 50.355 29.267 L 35.822 0 Z" stroke-opacity="0" stroke-miterlimit="10"></path></g><g><path fill="#D9A740" stroke="rgb(0,0,0)" d="M 61.732 17.331 L 61.738 56.576 L 30.914 72 L 30.91 4.987 L 50.355 40.267 L 61.732 17.331 Z" stroke-opacity="0" stroke-miterlimit="10"></path></g><g><path fill="#886A2A" stroke="rgb(0,0,0)" d="M 30.91 4.987 L 30.914 72 L 21.683 67.38 L 21.683 8.675 L 30.906 4.987 L 30.91 4.987 Z" stroke-opacity="0" stroke-miterlimit="10"></path></g></g></g></g></g><g transform="scale(1,1) matrix(1,0,0,1,781.9999999999999,543.5) translate(11.869,74)"><text fill="#000000" stroke="none" font-family="Arial" font-size="10px" font-style="normal" font-weight="normal" text-decoration="none" x="5.9951171875" y="9">SES</text><text fill="#000000" stroke="none" font-family="Arial" font-size="10px" font-style="normal" font-weight="normal" text-decoration="none" x="0.443359375" y="20">- Email</text></g><g transform="matrix(1,0,0,1,647.5,454.455)"><g transform="translate(0,0)"><g transform="translate(-779,-462) translate(131.5,7.545000000000016) matrix(1,0,0,1,0,0)"><g><path fill="none" stroke="#000000" d="M 780 458.955 L 716 458.955 L 716 519 L 652 519" stroke-miterlimit="10" stroke-width="2"></path></g></g></g></g><g transform="matrix(1,0,0,1,646.5,514.5)"><g transform="translate(0,0)"><g transform="translate(-776,-581) translate(129.5,66.5) matrix(1,0,0,1,0,0)"><g><path fill="none" stroke="#000000" d="M 780.9999999999999 580.5 L 716 580.5 L 716 519 L 651 519" stroke-miterlimit="10" stroke-width="2"></path></g></g></g></g></g></svg>